<?xml version="1.0" encoding="UTF-8"?>
<svg width="1056px" height="333px" viewBox="0 0 1056 333" version="1.1" xmlns="http://www.w3.org/2000/svg" xmlns:xlink="http://www.w3.org/1999/xlink">
    <title>Claimeer</title>
    <g id="Page-1" stroke="none" stroke-width="1" fill="none" fill-rule="evenodd">
        <g id="Desktop-HD" transform="translate(-157.000000, -590.000000)" fill="#FFFFFF" fill-rule="nonzero">
            <path d="M901.883444,864.326618 C899.52772,864.319991 897.223094,864.916714 894.991931,866.204877 C892.760768,867.493039 891.091678,869.190542 889.919603,871.234 C888.012557,874.558847 888.009967,877.891021 889.938029,881.230522 C893.766977,887.862455 898.007631,893.573732 902.637131,898.381856 C907.332862,903.258764 912.409513,907.345766 917.858159,910.654102 C923.287957,913.950993 929.000852,916.543603 934.995957,918.433893 C940.919192,920.301523 947.05025,921.541566 953.389918,922.150185 C959.631602,922.749397 966.008205,922.79532 972.519775,922.283584 C978.956475,921.777733 985.447301,920.770184 991.99179,919.257897 C998.429019,917.770396 1004.86189,915.914552 1011.2901,913.689255 C1017.70663,911.467998 1024.06978,908.884098 1030.37919,905.936667 C1036.65097,903.006821 1042.73421,899.839985 1048.62914,896.436551 C1051.86126,894.570485 1053.59805,891.826818 1053.98569,888.298709 C1054.28149,885.606428 1053.75447,882.968922 1052.2777,880.411084 C1050.80093,877.853247 1048.7803,876.078077 1046.30081,874.988112 C1043.05156,873.559764 1039.80708,873.692037 1036.57496,875.558103 C1029.52734,879.627044 1022.59496,883.259909 1015.77689,886.454936 C1009.06034,889.602384 1002.47474,892.225879 996.018325,894.320925 C989.637784,896.39135 983.476519,897.936178 977.532671,898.947715 C971.736475,899.934123 966.153012,900.368983 960.781479,900.240512 C955.551092,900.115418 950.526277,899.412181 945.708432,898.121271 C940.981952,896.854842 936.532577,894.994212 932.361395,892.536799 C928.184474,890.076005 924.299925,886.947393 920.695087,883.16709 C916.983797,879.275154 913.603042,874.661005 910.531473,869.340892 C908.603411,866.001391 905.716369,864.337547 901.883444,864.326618 Z M599.68,657.1 C594.203695,657.1 590.166872,658.843363 587.366052,661.933922 C584.698439,664.877495 583.14,669.221823 583.14,675.18 C583.14,681.014171 584.714174,685.262044 587.408914,688.142629 C590.199985,691.126187 594.222098,692.82 599.68,692.82 C604.965416,692.82 608.924005,691.1433 611.731086,688.142629 C614.440843,685.245991 615.956894,680.981861 615.779975,675.116856 C615.769337,669.216751 614.266728,664.907606 611.710307,661.985982 C608.9717,658.856146 605.027952,657.1 599.68,657.1 L599.68,657.1 Z M394.2,590 C401.588547,590 407.636791,591.723756 412.408736,594.988771 C417.216594,598.278358 420.907109,603.170627 423.359253,609.766047 C425.624836,615.859684 426.8,623.431719 426.8,632.5 C426.8,643.775075 426.243832,655.124339 425.131159,666.547775 C424.016007,677.996678 422.268647,689.2225 419.889657,700.225331 C417.509503,711.23354 414.53401,721.944139 410.963784,732.357297 C407.372934,742.830608 403.033352,752.817359 397.946333,762.318115 C394.734646,768.316412 391.225457,774.061875 387.419167,779.554748 L387.419999,785.831505 L387.423402,786.658479 C387.480583,793.50234 388.253805,799.486795 389.782672,804.605176 C391.189488,809.314949 393.588488,812.967231 397.085718,815.482782 C400.690241,818.07551 405.624424,819.238163 411.785388,819.239998 L412.4837,819.234794 C416.124168,819.178983 419.392103,818.676836 422.280945,817.6934 C425.162711,816.712374 427.652682,815.250362 429.738541,813.2872 C431.858663,811.291791 433.556995,808.787297 434.865371,805.796725 C435.963633,803.286412 436.78484,800.444052 437.346241,797.274678 C436.880466,793.279275 436.650777,789.339788 436.622886,785.166835 L436.62,784.306766 C436.619562,776.356806 437.390807,769.019627 438.919469,762.293516 C440.469428,755.473696 442.686547,749.354963 445.55362,743.930771 C448.507957,738.341485 452.189282,733.638081 456.579863,729.806301 C460.976474,725.969259 465.971216,723.008827 471.567254,720.930299 C477.122631,718.866873 483.23162,717.82 489.9,717.82 C496.369183,717.82 502.999581,719.068698 509.786239,721.59532 L510.627066,721.913886 C512.361066,722.582402 514.046974,723.304454 515.684903,724.079807 C516.415883,722.736581 517.463583,721.6983 518.772498,720.865354 C520.863054,719.535 523.95657,718.7 528.18,718.7 C532.235871,718.7 535.207548,719.485972 537.215418,720.728939 C539.916756,722.401196 541.42,724.97681 541.42,728.64 L541.42,805.191598 L541.42222,805.720045 C541.466342,810.859473 542.03059,814.632448 543.621164,816.812124 C545.023315,818.733591 547.847835,819.238564 551.484454,819.239997 L552.140635,819.23477 C556.206702,819.168111 559.980477,818.462924 563.457391,817.096994 C567.139085,815.650614 570.491172,813.611242 573.515285,810.981578 C576.612887,808.288011 579.336743,805.120385 581.693388,801.484418 C583.295614,799.012412 584.730632,796.418858 585.999013,793.704074 L586,728.352453 C586.115372,724.658378 587.605005,722.338201 590.204582,720.728939 C592.212452,719.485972 595.184129,718.7 599.24,718.7 C603.40765,718.7 606.46938,719.465749 608.534917,720.686294 C611.44332,722.404895 612.92,724.974147 612.92,728.42 L612.92,805.191598 L612.92222,805.720045 C612.966342,810.859473 613.53059,814.632448 615.121164,816.812124 C616.525313,818.736328 619.355885,819.24 623,819.24 L618.794446,843.74 L618.105848,843.735519 C612.870302,843.669463 608.312051,842.868445 604.419129,841.389134 C600.067796,839.735628 596.510745,837.199095 593.727707,833.807266 C591.778219,831.431329 590.186421,828.621174 588.978001,825.363135 C587.343362,827.172924 585.665523,828.858806 583.912773,830.426005 L583.284641,830.979795 C578.427267,835.202518 572.971979,838.388828 566.91906,840.539207 C560.937018,842.664406 554.405575,843.74 547.32,843.74 C541.783049,843.74 536.987172,842.934991 532.919129,841.389134 C528.567796,839.735628 525.010745,837.199095 522.227707,833.807266 C520.66445,831.902048 519.331192,829.717621 518.241179,827.24694 C518.213005,827.2808 518.18481,827.314578 518.156592,827.348271 C512.726875,833.831515 506.936537,838.142159 500.869017,840.407366 C494.886597,842.640803 489.101628,843.74 483.52,843.74 C474.356192,843.74 466.249046,841.500144 459.180004,837.081993 C454.530156,834.175838 450.519532,830.297916 447.172912,825.425202 C445.534002,827.708939 443.75767,829.75674 441.821023,831.576892 L441.341616,832.019844 C436.972824,835.987517 431.917581,838.946826 426.170911,840.889362 C420.578067,842.779901 414.396171,843.74 407.62,843.74 C396.700621,843.74 387.789714,841.240193 380.819068,836.432851 C373.786994,831.583145 368.575247,824.697379 365.257783,815.715954 C364.29484,813.108963 363.476269,810.370657 362.803792,807.500587 L361.587441,808.568723 C360.77513,809.274166 359.959243,809.967059 359.135262,810.651882 L358.126685,811.482783 C349.896932,818.203385 340.837345,823.981535 330.945856,828.814018 C321.065096,833.64126 310.31826,837.341387 298.70235,839.905938 C287.145521,842.457446 274.538601,843.74 260.88,843.74 C244.729798,843.74 230.262823,840.896615 217.467585,835.260617 C204.574645,829.581584 193.599449,821.294231 184.543566,810.396473 C175.573276,799.601718 168.713404,786.610955 163.999371,771.404395 C159.344874,756.389888 157,739.350379 157,720.28 C157,707.989998 158.052389,696.337397 160.150646,685.321552 C162.261389,674.240151 165.393432,663.913859 169.539426,654.340381 C173.704699,644.722388 178.744252,636.015339 184.65118,628.215165 C190.61923,620.334279 197.431775,613.642587 205.082781,608.133863 C212.749929,602.613516 221.182846,598.356127 230.383656,595.365864 C239.570013,592.380298 249.367971,590.88 259.78,590.88 C268.34261,590.88 276.867317,592.024947 285.353636,594.318546 C293.915331,596.632518 302.05546,600.406923 309.76924,605.652294 C317.488418,610.901335 324.453633,618.063996 330.631102,627.174114 C333.012173,630.544398 333.401416,633.475263 332.706096,635.908885 C332.106022,638.009143 330.558883,640.366411 327.723165,642.797026 C327.697031,642.819428 327.670919,642.841722 327.644352,642.863472 L327.591286,642.905273 C324.824132,645.079466 322.315779,646.179413 320.160453,646.473321 C317.547363,646.829651 314.616028,645.937966 311.620786,642.69312 C311.589342,642.659056 311.558156,642.625019 311.527659,642.589609 L311.482844,642.535604 C304.67967,634.344027 296.984736,628.114972 288.374339,623.879212 C279.809851,619.666036 270.275057,617.58 259.78,617.58 C252.599207,617.58 245.796817,618.644098 239.374911,620.784733 C232.9616,622.922504 227.031319,626.02624 221.583504,630.094862 C216.097149,634.192266 211.171579,639.231924 206.796812,645.203828 C202.35594,651.265971 198.55419,658.105944 195.382308,665.718462 C192.18428,673.393729 189.737039,681.780884 188.031489,690.877154 C186.314534,700.034245 185.46,709.835452 185.46,720.28 C185.46,735.852275 187.23074,749.820317 190.802725,762.179386 C194.319339,774.34687 199.328667,784.732458 205.871128,793.315042 C212.294016,801.740766 220.128349,808.169983 229.383915,812.590552 C238.698965,817.039531 249.199617,819.23921 260.873709,819.24 L262.177461,819.235855 C274.136475,819.159244 285.229325,818.021228 295.454669,815.810343 C305.959244,813.539084 315.578939,810.208908 324.309539,805.808118 C333.014172,801.420417 340.941089,796.042943 348.088876,789.673628 C352.424759,785.809969 356.461699,781.634385 360.199903,777.147075 L360.500019,636.227828 L360.502305,635.476318 C360.592783,620.552347 363.418481,609.493214 368.601175,602.144618 C374.233757,594.158121 382.703935,590 394.2,590 Z M491.88,743.2 C488.546794,743.2 485.435594,743.702884 482.550039,744.728859 C479.75997,745.720883 477.279244,747.207962 475.109077,749.192115 C472.866737,751.242254 470.95837,753.814367 469.357656,756.887738 C467.681235,760.106466 466.421385,763.866096 465.549949,768.15624 C464.643881,772.616882 464.2,777.705486 464.2,783.42 C464.2,790.997997 465.06753,797.51465 466.859515,802.959527 C468.487819,807.907066 470.904666,811.746418 474.234327,814.385016 C477.460997,816.942 481.530013,818.14 486.38,818.14 C490.999587,818.14 495.331403,817.08421 499.373972,814.966674 C503.506007,812.802274 507.273957,809.289486 510.745234,804.510835 L511.09181,804.026532 C512.272705,802.351376 513.395976,800.50058 514.493949,798.419122 L514.183415,748.367049 C511.851639,747.098901 509.570474,746.123323 507.335796,745.449858 C502.354458,743.948633 497.202329,743.2 491.88,743.2 Z M393.98,615.6 C392.733395,615.6 391.66509,615.979471 390.801903,616.803422 C389.635057,617.91723 388.959651,619.859708 388.439216,622.40984 C387.745975,625.806721 387.42,630.418522 387.42,636.24 L387.419197,725.116642 C389.05467,719.96838 390.531283,714.636178 391.849564,709.12021 C394.594949,697.632941 396.580132,685.495216 397.808323,672.707579 C399.043244,659.849871 399.66,646.447321 399.66,632.5 C399.66,628.052244 399.348197,624.442368 398.673919,621.677825 C398.134617,619.46669 397.437727,617.736352 396.403857,616.593653 C395.777282,615.901123 394.95551,615.6 393.98,615.6 Z M1110.52,705.499 C1113.69396,705.499 1116.31555,706.118466 1118.42302,707.220098 C1120.81185,708.468804 1122.61297,710.334365 1123.80854,712.834178 C1125.65624,716.69756 1126.62,721.226178 1126.62,726.44 L1126.62,727.798641 C1127.4772,727.491332 1128.42715,727.120826 1129.47081,726.695631 C1133.52465,725.044068 1138.216,723.390798 1143.5461,721.739219 C1149.14464,720.004459 1154.7829,719.14 1160.46,719.14 C1167.19153,719.14 1172.62363,720.493416 1176.81798,723.010028 C1181.23089,725.657772 1184.51143,729.721379 1186.54743,735.29824 C1188.36157,740.267415 1189.32,746.767316 1189.32,754.82 C1189.32,758.266945 1189.13479,762.650649 1188.76012,767.970994 C1188.39408,773.168719 1188.02805,778.659275 1187.66201,784.442659 C1187.29462,790.24742 1186.92722,795.721529 1186.55983,800.864988 C1186.20136,805.883671 1186.02,810.041968 1186.02,813.34 C1186.02,815.831859 1186.05863,817.720277 1186.80953,818.671423 C1187.21186,819.181036 1187.88718,819.24 1188.62,819.24 C1189.56379,819.24 1190.41832,819.118628 1191.17551,818.834683 C1192.0195,818.518187 1192.8338,818.064258 1193.62455,817.48438 C1194.73253,816.671861 1195.80378,815.896086 1196.83812,815.156739 C1199.13799,813.457792 1201.7232,813.085149 1204.62556,814.246093 C1206.69106,815.072292 1208.44477,816.313945 1209.89031,817.965982 C1211.78851,820.332507 1212.63441,822.588245 1212.74501,824.80025 C1212.85585,827.017056 1212.36589,829.125905 1211.25663,831.122572 C1209.10262,834.113183 1206.75411,836.34466 1203.9288,838.228201 C1201.16244,840.072441 1198.14539,841.457617 1194.87584,842.379799 C1191.65848,843.287261 1188.39977,843.74 1185.1,843.74 C1180.74979,843.74 1176.99308,843.123443 1173.81718,841.953372 C1170.36517,840.681581 1167.56757,838.796818 1165.39036,836.347455 C1163.26723,833.958933 1161.64415,830.965868 1160.58105,827.333595 C1159.6044,823.996696 1159.1,820.213854 1159.1,815.98 C1159.1,811.792534 1159.28573,807.006806 1159.65961,801.62289 C1160.02595,796.347599 1160.39229,790.925772 1160.75863,785.35741 C1161.1259,779.774814 1161.49318,774.449312 1161.86046,769.380903 C1162.21903,764.432655 1162.4,760.165721 1162.4,756.58 C1162.4,752.000878 1162.09799,748.73269 1160.96416,747.002105 C1160.16773,745.786513 1158.47711,745.62 1156.5,745.62 C1152.70393,745.62 1148.36911,746.318923 1143.49058,747.674072 C1138.21258,749.140182 1133.08119,750.569639 1128.09642,751.962444 C1126.93409,752.287212 1125.82074,752.575756 1124.75645,752.828452 C1123.94501,769.314559 1121.60544,783.541195 1117.77375,795.515447 L1117.51272,796.320731 C1112.31932,812.136812 1104.916,823.891751 1095.47079,831.711149 C1085.80376,839.714181 1074.39949,843.74 1061.24,843.74 C1052.82668,843.74 1045.0002,842.405027 1037.75654,839.756809 C1030.93827,837.264109 1024.70708,833.804514 1019.06205,829.379613 C1014.52599,832.122839 1010.09332,834.448272 1005.76573,836.359155 C999.833071,838.978771 993.822741,840.86411 987.736162,842.019789 C981.710297,843.163941 975.265174,843.74 968.4,843.74 C959.726033,843.74 951.55715,842.416019 943.890749,839.783113 C936.224432,837.150237 929.217291,833.431648 922.867567,828.630637 C922.495824,828.349563 922.127135,828.065436 921.761498,827.778256 C918.012389,830.159977 914.047768,832.292321 909.73928,834.260857 L908.767187,834.699617 C902.45129,837.515763 895.94502,839.722711 889.248474,841.32075 C882.478452,842.936323 875.861984,843.74 869.4,843.74 C863.863049,843.74 859.067172,842.934991 854.999129,841.389134 C850.647796,839.735628 847.090745,837.199095 844.307707,833.807266 C841.621277,830.533181 839.614076,826.434544 838.353326,821.475595 C837.18242,816.870031 836.58,811.446444 836.58,805.2 L836.58,764.292496 L836.576,763.652271 C836.520829,759.350734 835.901319,755.605641 834.656107,752.43035 C833.529057,749.556372 831.711678,747.343769 829.172017,745.819972 C826.390836,744.151263 822.690927,743.42 818.14,743.42 C814.750508,743.42 811.330136,744.014535 807.87633,745.187526 C804.449528,746.351346 801.193761,748.272592 798.091618,750.91982 L797.699702,751.26088 C795.115226,753.554956 792.79271,756.509175 790.703219,760.099426 C790.678883,760.83407 790.67799,761.420217 790.679065,761.973453 L790.68,833.647443 C790.565241,837.335365 789.03944,839.691943 786.294917,841.313706 C784.22938,842.534251 781.16765,843.3 777,843.3 C772.778983,843.3 769.738056,842.505116 767.744582,841.271061 C764.983688,839.561936 763.54,837.022532 763.54,833.58 L763.54,764.291645 L763.536318,763.659306 C763.483307,759.219488 762.866212,755.398116 761.616107,752.21035 C760.500177,749.364729 758.704802,747.197098 756.18889,745.74346 C753.385033,744.123454 749.592472,743.42 744.88,743.42 C742.600041,743.42 740.258135,743.775812 737.852232,744.472257 C735.426696,745.174386 732.976671,746.369621 730.488801,748.028201 C727.94221,749.725929 725.568183,751.955424 723.348979,754.696793 C721.189372,757.364543 719.220173,760.63479 717.42,764.493915 L717.42,833.647443 C717.305241,837.335365 715.77944,839.691943 713.034917,841.313706 C710.96938,842.534251 707.90765,843.3 703.74,843.3 C699.684129,843.3 696.712452,842.514028 694.704582,841.271061 C691.943688,839.561936 690.5,837.022532 690.5,833.58 L690.5,754.828009 C690.46121,749.826329 690.126902,746.569684 688.778423,744.940271 C687.601373,743.518002 685.333375,743.205048 682.470203,743.200067 C681.217036,743.249812 680.196891,743.54779 679.198229,744.112251 C678.00968,744.78404 676.992612,746.110187 675.972973,747.894556 C674.637143,750.232257 673.434311,753.584412 672.299836,757.922111 C671.085388,762.565588 669.984528,768.603217 668.984408,776.034715 C667.334679,789.515036 665.109723,800.559576 662.33777,809.175108 C659.440615,818.179777 655.948898,825.11807 651.958979,830.046793 C647.714632,835.28981 642.744164,838.876826 637.09128,840.871961 C631.712722,842.770276 625.535329,843.74 618.730472,843.74 C611.925616,843.74 620.432728,819.301043 623.006073,819.24 C625.579418,819.178957 627.636427,818.559944 629.532854,817.309154 C632.089114,815.504186 634.045886,813.083455 635.758116,809.903601 C637.682751,806.329277 639.317331,801.924634 640.691702,796.702027 C642.117079,791.285595 643.252204,784.94178 644.107398,777.672635 C645.46188,766.535525 647.238532,757.332871 649.417609,750.044234 C651.691709,742.437763 654.431051,736.419276 657.565773,731.952297 C660.948378,727.132085 664.789449,723.759329 669.009076,721.733908 C673.204056,719.720317 677.816342,718.698152 682.853657,718.700003 L683.625045,718.705124 C687.985598,718.762417 691.839858,719.303115 695.193385,720.293929 C698.91304,721.392918 702.116383,722.972288 704.82,725 C707.580176,727.070132 709.868396,729.612723 711.679972,732.632017 C712.152241,733.419133 712.591426,734.227409 712.997326,735.056927 C714.285707,733.4105 715.635718,731.918823 717.045002,730.580002 C720.236011,727.548544 723.5507,725.081536 726.980535,723.167209 C730.483595,721.212013 734.029635,719.833987 737.613516,719.019469 C741.157299,718.214063 744.46005,717.82 747.52,717.82 C755.645839,717.82 762.886637,719.361335 769.256227,722.38689 C775.264369,725.240757 780.156415,729.554295 783.909513,735.352752 C788.46826,729.754717 793.871047,725.442616 800.108122,722.404041 C806.35776,719.359345 813.245662,717.82 820.78,717.82 C828.916546,717.82 836.126036,719.365986 842.42389,722.395333 C848.943513,725.531354 854.119494,730.425594 857.918245,737.1147 C861.575972,743.55548 863.5,752.004025 863.5,762.52 L863.5,805.191598 L863.50222,805.720045 C863.546342,810.859473 864.11059,814.632448 865.701164,816.812124 C867.103791,818.734243 869.929753,819.238907 873.568158,819.239998 L874.422126,819.234817 C881.85154,819.14322 888.992914,817.835385 895.84549,815.30725 C899.479722,813.966465 902.856199,812.467165 905.973325,810.806095 C901.666859,804.448377 898.323523,797.519633 895.946812,790.018139 C893.479143,782.229557 892.24,774.017406 892.24,765.38 C892.24,760.036246 892.873633,754.96841 894.130882,750.175149 C895.4136,745.284785 897.304845,740.879083 899.789685,736.951433 C902.301025,732.981896 905.301836,729.582816 908.784914,726.747752 C912.285946,723.898075 916.15344,721.699902 920.387228,720.15294 C924.628705,718.60317 929.195461,717.818802 934.091212,717.820001 L934.7872,717.823816 C943.737078,717.920846 950.987747,719.883664 956.604965,723.522988 C962.508669,727.347923 966.779365,732.38646 969.439113,738.620245 C971.99378,744.607747 973.28,751.033087 973.28,757.9 C973.28,763.310145 972.298224,768.882202 970.308695,774.612047 C968.376482,780.176818 965.713496,785.627491 962.312632,790.960664 C958.968107,796.205487 955.0927,801.261248 950.68425,806.12662 C949.055859,807.985247 947.368303,809.784709 945.621588,811.525011 C947.549346,812.722269 949.498675,813.756718 951.5149,814.661254 L952.178186,814.953122 C958.104822,817.510536 964.097327,818.8 970.16,818.8 C976.873277,818.8 982.435165,818.361805 986.841634,817.452533 C991.102411,816.573325 994.993801,815.260964 998.511146,813.502291 C999.901778,812.806975 1001.35221,812.051667 1002.86253,811.236515 C998.8284,804.735023 995.700423,797.628497 993.485344,789.913911 C991.258479,782.158277 990.14,773.980796 990.14,765.38 C990.14,760.036246 990.773633,754.96841 992.030882,750.175149 C993.308748,745.303283 995.152992,740.914203 997.548595,737.001385 C999.990703,733.012607 1002.96492,729.596585 1006.46491,726.747752 C1009.96595,723.898075 1013.83344,721.699902 1018.06723,720.15294 C1022.30871,718.60317 1026.87546,717.818802 1031.77121,717.820001 L1032.4672,717.823816 C1041.41708,717.920846 1048.66775,719.883664 1054.28497,723.522988 C1060.18867,727.347923 1064.45936,732.38646 1067.11911,738.620245 C1069.67378,744.607747 1070.96,751.033087 1070.96,757.9 C1070.96,763.310145 1069.97822,768.882202 1067.98869,774.612047 C1066.05648,780.176818 1063.3935,785.627491 1059.99263,790.960664 C1056.64811,796.205487 1052.7727,801.261248 1048.36463,806.126187 C1046.33896,808.438286 1044.22174,810.658834 1042.01297,812.78783 C1043.05055,813.452992 1044.11052,814.070396 1045.19297,814.6399 L1045.79057,814.948294 C1050.84206,817.504557 1055.98922,818.8 1061.24,818.8 C1069.25062,818.8 1076.15599,815.91267 1081.96742,810.165816 C1088.15954,804.042496 1092.85867,795.05508 1096.22475,783.308146 C1099.32752,772.480108 1101.03711,759.546358 1101.39076,744.522175 C1099.94576,742.21291 1098.81754,739.958186 1097.82221,737.485209 L1097.55365,736.804138 C1095.74641,732.126211 1094.86,727.569497 1094.86,723.14 C1094.86,719.904959 1095.42646,717.037229 1096.50342,714.524323 C1097.69807,711.73681 1099.46013,709.566373 1101.74574,707.976379 C1105.48785,705.373176 1105.96149,705.499 1110.52,705.499 Z M1030.88,743.2 C1029.17199,743.2 1027.60694,743.560005 1025.90317,744.40077 C1024.38789,745.223211 1023.08323,746.470558 1021.94693,748.093849 C1020.64183,749.958277 1019.63778,752.235632 1018.89279,754.905196 C1018.09795,757.753358 1017.72,761.100306 1017.72,764.94 C1017.72,772.777542 1018.97802,779.999885 1021.52238,786.601479 C1022.72598,789.724343 1024.11831,792.655893 1025.81648,795.365944 C1026.9991,794.178055 1028.12599,792.981866 1029.19701,791.777559 C1032.26028,788.296659 1034.8737,784.782945 1037.03191,781.232339 C1039.11817,777.800116 1040.70237,774.234338 1041.77922,770.532682 C1042.84708,766.8619 1043.38,763.090909 1043.38,759.22 C1043.38,753.139012 1042.58685,748.693273 1040.1876,746.354001 C1037.93121,744.154023 1034.83958,743.2 1030.88,743.2 Z M932.88,743.2 C931.171994,743.2 929.606941,743.560005 927.903166,744.40077 C926.387888,745.223211 925.083232,746.470558 923.946928,748.093849 C922.641828,749.958277 921.63778,752.235632 920.892785,754.905196 C920.097949,757.753358 919.72,761.100306 919.72,764.94 C919.72,772.777542 920.978015,779.999885 923.522379,786.601479 C924.725983,789.724343 926.118311,792.655893 927.81648,795.365944 C928.999099,794.178055 930.125994,792.981866 931.197013,791.777559 C934.260276,788.296659 936.8737,784.782945 939.031912,781.232339 C941.118166,777.800116 942.702373,774.234338 943.779219,770.532682 C944.847083,766.8619 945.38,763.090909 945.38,759.22 C945.38,753.139012 944.586853,748.693273 942.187599,746.354001 C939.931212,744.154023 936.83958,743.2 932.88,743.2 Z" id="Claimeer"></path>
        </g>
    </g>
</svg>