<?xml version="1.0" encoding="UTF-8"?>
<svg width="122px" height="160px" viewBox="0 0 122 160" version="1.1" xmlns="http://www.w3.org/2000/svg" xmlns:xlink="http://www.w3.org/1999/xlink">
    <g stroke="none" stroke-width="1" fill="none" fill-rule="evenodd">
        <g transform="translate(-121.000000, -95.000000)" fill="#22262A" fill-rule="nonzero">
            <g transform="translate(121.000000, 95.000000)">
                <path d="M9.588,159.636 C10.9933333,159.636 12.2286667,159.415 13.294,158.973 C14.3593333,158.531 15.3793333,157.856667 16.354,156.95 L16.354,156.95 L12.172,152.768 C11.8773333,153.085333 11.5373333,153.334667 11.152,153.516 C10.7666667,153.697333 10.2793333,153.788 9.69,153.788 C9.16866667,153.788 8.68133333,153.663333 8.228,153.414 C7.77466667,153.164667 7.412,152.819 7.14,152.377 C6.868,151.935 6.732,151.419333 6.732,150.83 C6.732,150.240667 6.868,149.730667 7.14,149.3 C7.412,148.869333 7.769,148.535 8.211,148.297 C8.653,148.059 9.146,147.94 9.69,147.94 C10.2113333,147.94 10.6533333,148.008 11.016,148.144 C11.3786667,148.28 11.7073333,148.484 12.002,148.756 L12.002,148.756 L16.184,144.574 C15.2773333,143.735333 14.297,143.112 13.243,142.704 C12.189,142.296 11.0046667,142.092 9.69,142.092 C7.854,142.092 6.205,142.471667 4.743,143.231 C3.281,143.990333 2.125,145.033 1.275,146.359 C0.425,147.685 2.84217094e-14,149.198 2.84217094e-14,150.898 C2.84217094e-14,152.575333 0.419333333,154.077 1.258,155.403 C2.09666667,156.729 3.24133333,157.766 4.692,158.514 C6.14266667,159.262 7.77466667,159.636 9.588,159.636 Z M24.956,159.228 L24.956,134.34 L18.292,134.34 L18.292,159.228 L24.956,159.228 Z M35.122,159.568 C36.0966667,159.568 36.9976667,159.403667 37.825,159.075 C38.2386667,158.910667 38.6183333,158.71375 38.964,158.48425 L39.202,158.317 L39.202,159.228 L45.696,159.228 L45.696,142.5 L39.202,142.5 L39.202,143.412 L38.964,143.24375 C38.70475,143.071625 38.426375,142.917828 38.128875,142.782359 L37.825,142.653 C36.9976667,142.324333 36.0966667,142.16 35.122,142.16 C33.558,142.16 32.1753333,142.528333 30.974,143.265 C29.7726667,144.001667 28.832,145.027333 28.152,146.342 C27.472,147.656667 27.132,149.164 27.132,150.864 C27.132,152.564 27.472,154.065667 28.152,155.369 C28.832,156.672333 29.7726667,157.698 30.974,158.446 C32.1753333,159.194 33.558,159.568 35.122,159.568 Z M36.618,153.72 C36.0966667,153.72 35.6206667,153.595333 35.19,153.346 C34.7593333,153.096667 34.425,152.756667 34.187,152.326 C33.949,151.895333 33.83,151.408 33.83,150.864 C33.83,150.32 33.9546667,149.832667 34.204,149.402 C34.4533333,148.971333 34.7876667,148.631333 35.207,148.382 C35.6263333,148.132667 36.108,148.008 36.652,148.008 C37.196,148.008 37.6776667,148.132667 38.097,148.382 C38.5163333,148.631333 38.8393333,148.965667 39.066,149.385 C39.2926667,149.804333 39.406,150.297333 39.406,150.864 C39.406,151.702667 39.151,152.388333 38.641,152.921 C38.131,153.453667 37.4566667,153.72 36.618,153.72 Z M52.19,140.936 C53.1873333,140.936 54.0033333,140.601667 54.638,139.933 C55.2726667,139.264333 55.59,138.442667 55.59,137.468 C55.59,136.493333 55.2726667,135.671667 54.638,135.003 C54.0033333,134.334333 53.1873333,134 52.19,134 C51.2153333,134 50.405,134.334333 49.759,135.003 C49.113,135.671667 48.79,136.493333 48.79,137.468 C48.79,138.442667 49.113,139.264333 49.759,139.933 C50.405,140.601667 51.2153333,140.936 52.19,140.936 Z M55.522,159.228 L55.522,142.5 L48.858,142.5 L48.858,159.228 L55.522,159.228 Z M65.348,159.228 L65.348,149.64 C65.348,149.254667 65.4216667,148.926 65.569,148.654 C65.7163333,148.382 65.9316667,148.172333 66.215,148.025 C66.4983333,147.877667 66.8213333,147.804 67.184,147.804 C67.7053333,147.804 68.136,147.968333 68.476,148.297 C68.816,148.625667 68.986,149.073333 68.986,149.64 L68.986,149.64 L68.986,159.228 L75.65,159.228 L75.65,149.64 C75.65,149.254667 75.7236667,148.926 75.871,148.654 C76.0183333,148.382 76.2336667,148.172333 76.517,148.025 C76.8003333,147.877667 77.1233333,147.804 77.486,147.804 C78.0073333,147.804 78.438,147.968333 78.778,148.297 C79.118,148.625667 79.288,149.073333 79.288,149.64 L79.288,149.64 L79.288,159.228 L85.952,159.228 L85.952,149.3 C85.952,147.804 85.6573333,146.523333 85.068,145.458 C84.4786667,144.392667 83.6683333,143.576667 82.637,143.01 C81.6056667,142.443333 80.4213333,142.16 79.084,142.16 C77.656,142.16 76.3866667,142.460333 75.276,143.061 C74.8132222,143.311278 74.3927477,143.60681 74.0145764,143.947597 L73.94,144.018 L73.87775,143.94925 C73.58535,143.647783 73.26303,143.379863 72.91079,143.14549 L72.641,142.976 C71.723,142.432 70.6973333,142.16 69.564,142.16 C68.272,142.16 67.116,142.420667 66.096,142.942 C65.9105455,143.036788 65.732022,143.139069 65.5604298,143.248843 L65.348,143.393 L65.348,142.5 L58.684,142.5 L58.684,159.228 L65.348,159.228 Z M92.446,159.636 C93.5113333,159.636 94.3896667,159.273333 95.081,158.548 C95.7723333,157.822667 96.118,156.938667 96.118,155.896 C96.118,154.826771 95.7723333,153.930464 95.081,153.207078 C94.3896667,152.483693 93.5113333,152.122 92.446,152.122 C91.3806667,152.122 90.4966667,152.483693 89.794,153.207078 C89.0913333,153.930464 88.74,154.826771 88.74,155.896 C88.74,156.938667 89.0913333,157.822667 89.794,158.548 C90.4966667,159.273333 91.3806667,159.636 92.446,159.636 Z M102.578,140.936 C103.575333,140.936 104.391333,140.601667 105.026,139.933 C105.660667,139.264333 105.978,138.442667 105.978,137.468 C105.978,136.493333 105.660667,135.671667 105.026,135.003 C104.391333,134.334333 103.575333,134 102.578,134 C101.603333,134 100.793,134.334333 100.147,135.003 C99.501,135.671667 99.178,136.493333 99.178,137.468 C99.178,138.442667 99.501,139.264333 100.147,139.933 C100.793,140.601667 101.603333,140.936 102.578,140.936 Z M105.91,159.228 L105.91,142.5 L99.246,142.5 L99.246,159.228 L105.91,159.228 Z M117.946,159.228 L117.946,147.94 L121.516,147.94 L121.516,142.5 L117.946,142.5 L117.946,135.632 L111.282,135.632 L111.282,142.5 L107.712,142.5 L107.712,147.94 L111.282,147.94 L111.282,159.228 L117.946,159.228 Z" id="claim.it"></path>
                <path d="M92.8607143,51.2009174 L96.5214286,52.0761468 L96.5214286,48.4293578 L100.182143,49.3045872 L100.182143,45.6577982 L103.842857,46.5330275 L103.842857,42.8862385 L107.503571,43.7614679 L107.503571,40.1146789 L111.164286,40.9899083 L111.164286,10.6486239 L71.1892857,1.31284404 C57.5714286,-1.89633028 44.8321429,1.02110092 35.9,8.89816514 C34.5821429,9.7733945 33.4107143,10.6486239 32.3857143,11.6697248 C31.0678571,12.5449541 29.8964286,13.4201835 28.8714286,14.4412844 C27.8464286,15.1706422 26.8214286,15.9 25.9428571,16.6293578 L21.55,20.1302752 L21.55,20.1302752 C20.8178571,20.5678899 20.0857143,21.1513761 19.3535714,21.7348624 C10.7142857,28.5908257 5.88214286,39.093578 5.88214286,51.4926606 C5.88214286,77.166055 26.8214286,102.985321 52.7392857,108.966055 L93.1535714,118.301835 L93.1535714,114.655046 L96.8142857,115.530275 L96.8142857,111.883486 L100.475,112.758716 L100.475,109.111927 L104.135714,109.987156 L104.135714,106.340367 L107.796429,107.215596 L107.796429,103.568807 L111.457143,104.444037 L111.457143,74.2486239 L84.075,67.8302752 C75.2892857,65.7880734 68.1142857,57.4733945 67.2357143,48.8669725 L93.1535714,54.8477064 L93.1535714,51.2009174 L92.8607143,51.2009174 Z M70.6035714,3.20917431 L109.260714,12.1073394 L109.260714,38.5100917 L107.503571,38.0724771 L107.503571,13.2743119 L67.5285714,3.93853211 C61.0857143,2.47981651 54.7892857,2.33394495 49.0785714,3.50091743 C55.375,1.60458716 62.8428571,1.4587156 70.6035714,3.20917431 Z M66.9428571,5.98073394 L105.6,14.8788991 L105.6,41.2816514 L103.842857,40.8440367 L103.842857,16.0458716 L63.8678571,6.71009174 C57.7178571,5.25137615 51.7142857,5.10550459 46.15,5.98073394 C52.4464286,4.52201835 59.6214286,4.23027523 66.9428571,5.98073394 Z M63.2821429,8.75229358 L101.939286,17.6504587 L101.939286,44.053211 L100.182143,43.6155963 L100.182143,18.8174312 L60.2071429,9.48165138 C53.9107143,8.02293578 47.6142857,7.87706422 41.9035714,8.89816514 C48.3464286,7.14770642 55.6678571,7.00183486 63.2821429,8.75229358 Z M59.7678571,11.5238532 L98.425,20.4220183 L98.425,46.8247706 L96.6678571,46.387156 L96.6678571,21.5889908 L56.6928571,12.253211 C50.25,10.7944954 43.9535714,10.6486239 38.0964286,11.8155963 C44.5392857,9.91926606 51.8607143,9.7733945 59.7678571,11.5238532 Z M56.1071429,14.2954128 L94.7642857,23.193578 L94.7642857,49.5963303 L93.0071429,49.1587156 L93.0071429,24.3605505 L53.0321429,15.0247706 C46.7357143,13.566055 40.5857143,13.4201835 35.0214286,14.4412844 C41.3178571,12.6908257 48.4928571,12.5449541 56.1071429,14.2954128 Z M94.6178571,113.19633 L92.8607143,112.758716 L92.8607143,87.9605505 L65.4785714,81.5422018 C56.1071429,79.3541284 48.6392857,70.0183486 48.6392857,60.8284404 C48.6392857,57.4733945 49.6642857,54.5559633 51.4214286,52.3678899 C50.8357143,54.1183486 50.3964286,56.0146789 50.3964286,58.0568807 C50.3964286,68.1220183 58.5964286,78.187156 68.7,80.6669725 L94.6178571,86.6477064 L94.6178571,113.19633 L94.6178571,113.19633 Z M98.2785714,110.424771 L96.5214286,109.987156 L96.5214286,85.1889908 L69.1392857,78.7706422 C59.7678571,76.5825688 52.3,67.246789 52.3,58.0568807 C52.3,54.8477064 53.325,51.7844037 55.0821429,49.5963303 C54.4964286,51.346789 54.0571429,53.2431193 54.0571429,55.2853211 C54.0571429,65.3504587 62.2571429,75.4155963 72.3607143,77.8954128 L98.2785714,83.8761468 L98.2785714,110.424771 L98.2785714,110.424771 Z M101.939286,107.653211 L100.182143,107.215596 L100.182143,82.4174312 L72.8,75.9990826 C63.4285714,73.8110092 55.9607143,64.4752294 55.9607143,55.2853211 C55.9607143,52.659633 56.5464286,50.3256881 57.7178571,48.2834862 C57.8642857,48.2834862 58.1571429,48.1376147 58.3035714,48.1376147 C58.0107143,49.4504587 57.7178571,50.9091743 57.7178571,52.5137615 C57.7178571,62.5788991 65.9178571,72.6440367 76.0214286,75.1238532 L101.939286,81.1045872 L101.939286,107.653211 Z M105.6,104.881651 L103.842857,104.444037 L103.842857,79.6458716 L76.4607143,73.2275229 C67.0892857,71.0394495 59.6214286,61.7036697 59.6214286,52.5137615 C59.6214286,50.9091743 59.9142857,49.3045872 60.3535714,47.8458716 C60.7928571,47.8458716 61.0857143,47.8458716 61.525,47.8458716 C61.525,48.4293578 61.3785714,49.012844 61.3785714,49.7422018 C61.3785714,59.8073394 69.5785714,69.8724771 79.6821429,72.3522936 L105.6,78.3330275 L105.6,104.881651 L105.6,104.881651 Z M83.3428571,69.5807339 L109.260714,75.5614679 L109.260714,102.110092 L107.503571,101.672477 L107.503571,76.8743119 L80.1214286,70.4559633 C70.75,68.2678899 63.2821429,58.9321101 63.2821429,49.7422018 C63.2821429,49.1587156 63.2821429,48.5752294 63.4285714,47.9917431 C64.0142857,47.9917431 64.6,48.1376147 65.1857143,48.2834862 C65.625,58.0568807 73.6785714,67.3926606 83.3428571,69.5807339 Z M90.9571429,52.5137615 L65.4785714,46.5330275 C62.2571429,45.8036697 59.1821429,45.9495413 56.4,46.8247706 L56.4,46.8247706 C56.4,46.8247706 56.4,46.8247706 56.4,46.8247706 C55.6678571,47.1165138 55.0821429,47.2623853 54.35,47.7 L54.35,47.7 C54.35,47.7 54.2035714,47.8458716 54.2035714,47.8458716 C53.4714286,48.2834862 52.7392857,48.7211009 52.0071429,49.3045872 C48.4928571,52.0761468 46.5892857,56.1605505 46.5892857,61.1201835 C46.5892857,71.1853211 54.7892857,81.3963303 64.8928571,83.7302752 L90.8107143,89.7110092 L90.8107143,116.113761 L52.5928571,107.215596 C27.5535714,101.380734 7.2,76.4366972 7.2,51.4926606 C7.2,39.6770642 11.7392857,29.7577982 19.9392857,23.193578 C25.9428571,18.3798165 33.5571429,15.9 41.7571429,15.9 C45.125,15.9 48.6392857,16.3376147 52.1535714,17.0669725 L90.8107143,25.9651376 L90.8107143,52.5137615 L90.9571429,52.5137615 Z" id="shape"></path>
            </g>
        </g>
    </g>
</svg>