<?xml version="1.0" encoding="UTF-8"?>
<svg width="90px" height="100px" viewBox="0 0 90 100" version="1.1" xmlns="http://www.w3.org/2000/svg" xmlns:xlink="http://www.w3.org/1999/xlink">
    <title>claimit_icon</title>
    <g id="Page-1" stroke="none" stroke-width="1" fill="none" fill-rule="evenodd">
        <g id="Artboard" transform="translate(-889.000000, -124.000000)" fill="#DFE3E7" fill-rule="nonzero">
            <g id="claimit_icon" transform="translate(889.000000, 124.000000)">
                <path d="M73.771947,43.2967094 L76.8467644,44.0327514 L76.8467644,40.9659096 L79.9215818,41.7019516 L79.9215818,38.6351097 L82.9963992,39.3711518 L82.9963992,36.3043099 L86.0712165,37.040352 L86.0712165,33.9735101 L89.1460339,34.7095522 L89.1460339,9.19342787 L55.569028,1.3423127 C44.1307073,-1.35650814 33.4303428,1.09696535 25.9277883,7.72134377 C24.8208541,8.45738582 23.8369125,9.19342787 22.9759636,10.0521436 C21.8690294,10.7881856 20.8850878,11.5242277 20.0241389,12.3829434 C19.1631901,12.9963118 18.3022412,13.6096801 17.564285,14.2230485 L13.8745042,17.1672167 L13.8745042,17.1672167 C13.2595407,17.5352377 12.6445772,18.0259324 12.0296137,18.5166271 C4.77304467,24.2822898 0.714285714,33.1147944 0.714285714,43.5420567 C0.714285714,65.1326234 18.3022412,86.8458638 40.0719483,91.8754845 L74.0179324,99.7265996 L74.0179324,96.6597578 L77.0927498,97.3957998 L77.0927498,94.328958 L80.1675671,95.065 L80.1675671,91.9981581 L83.2423845,92.7342002 L83.2423845,89.6673583 L86.3172019,90.4034004 L86.3172019,87.3365585 L89.3920193,88.0726006 L89.3920193,62.6791499 L66.3923852,57.2815083 C59.0128235,55.5640768 52.9861814,48.5716774 52.2482252,41.3339306 L74.0179324,46.3635512 L74.0179324,43.2967094 L73.771947,43.2967094 Z M55.0770572,2.93707047 L87.5471289,10.4201646 L87.5471289,32.6240997 L86.0712165,32.2560787 L86.0712165,11.401554 L52.4942106,3.55043884 C47.082532,2.32370209 41.7938461,2.20102842 36.997131,3.18241782 C42.2858169,1.58766005 48.5584443,1.46498637 55.0770572,2.93707047 Z M52.0022398,5.26787028 L84.4723115,12.7509644 L84.4723115,34.9548995 L82.9963992,34.5868785 L82.9963992,13.7323538 L49.4193932,5.88123865 C44.2537,4.65450191 39.2109995,4.53182824 34.537277,5.26787028 C39.825963,4.04113354 45.852605,3.79578619 52.0022398,5.26787028 Z M48.9274224,7.5986701 L81.3974941,15.0817642 L81.3974941,37.2856993 L79.9215818,36.9176783 L79.9215818,16.0631536 L46.3445758,8.21203847 C41.0558899,6.98530173 35.767204,6.86262805 30.9704889,7.72134377 C36.3821675,6.24925968 42.5318023,6.126586 48.9274224,7.5986701 Z M45.9755977,9.92946991 L78.4456694,17.4125641 L78.4456694,39.6164991 L76.9697571,39.2484781 L76.9697571,18.3939535 L43.3927511,10.5428383 C37.9810725,9.31610154 32.6923866,9.19342787 27.7726788,10.1748173 C33.1843574,8.58005949 39.3339922,8.45738582 45.9755977,9.92946991 Z M42.9007803,12.2602697 L75.370852,19.7433639 L75.370852,41.947299 L73.8949397,41.5792779 L73.8949397,20.7247533 L40.3179337,12.8736381 C35.0292478,11.6469014 29.8635546,11.5242277 25.1898322,12.3829434 C30.4785181,10.9108593 36.5051602,10.7881856 42.9007803,12.2602697 Z M75.2478593,95.433021 L73.771947,95.065 L73.771947,74.2104753 L50.7723129,68.8128337 C42.9007803,66.9727286 36.6281529,59.1216134 36.6281529,51.3931719 C36.6281529,48.5716774 37.4891017,46.1182039 38.9650141,44.2780988 C38.4730433,45.7501829 38.1040652,47.3449406 38.1040652,49.0623721 C38.1040652,57.5268556 44.9916562,65.9913392 53.4781522,68.0767916 L75.2478593,73.1064123 L75.2478593,95.433021 L75.2478593,95.433021 Z M78.3226767,93.1022212 L76.8467644,92.7342002 L76.8467644,71.8796755 L53.8471303,66.4820339 C45.9755977,64.6419287 39.7029703,56.7908136 39.7029703,49.0623721 C39.7029703,46.3635512 40.5639191,43.7874041 42.0398315,41.947299 C41.5478607,43.419383 41.1788826,45.0141408 41.1788826,46.7315723 C41.1788826,55.1960558 48.0664736,63.6605393 56.5529696,65.7459918 L78.3226767,70.7756125 L78.3226767,93.1022212 L78.3226767,93.1022212 Z M81.3974941,90.7714214 L79.9215818,90.4034004 L79.9215818,69.5488757 L56.9219477,64.151234 C49.0504151,62.3111289 42.7777877,54.4600138 42.7777877,46.7315723 C42.7777877,44.5234461 43.2697584,42.5606673 44.2537,40.8432359 C44.3766927,40.8432359 44.6226781,40.7205622 44.7456708,40.7205622 C44.4996854,41.8246253 44.2537,43.051362 44.2537,44.4007724 C44.2537,52.865256 51.141291,61.3297395 59.627787,63.415192 L81.3974941,68.4448126 L81.3974941,90.7714214 Z M84.4723115,88.4406216 L82.9963992,88.0726006 L82.9963992,67.2180759 L59.9967651,61.8204342 C52.1252325,59.9803291 45.852605,52.1292139 45.852605,44.4007724 C45.852605,43.051362 46.0985904,41.7019516 46.4675685,40.4752149 C46.8365466,40.4752149 47.082532,40.4752149 47.4515101,40.4752149 C47.4515101,40.9659096 47.3285174,41.4566043 47.3285174,42.0699726 C47.3285174,50.5344562 54.2161084,58.9989397 62.7026044,61.0843922 L84.4723115,66.1140128 L84.4723115,88.4406216 L84.4723115,88.4406216 Z M65.7774218,58.7535924 L87.5471289,63.783213 L87.5471289,86.1098218 L86.0712165,85.7418007 L86.0712165,64.8872761 L63.0715824,59.4896344 C55.2000499,57.6495293 48.9274224,49.7984141 48.9274224,42.0699726 C48.9274224,41.5792779 48.9274224,41.0885832 49.0504151,40.5978885 C49.5423859,40.5978885 50.0343567,40.7205622 50.5263275,40.8432359 C50.8953056,49.0623721 57.6599038,56.9134872 65.7774218,58.7535924 Z M72.1730419,44.4007724 L50.7723129,39.3711518 C48.0664736,38.7577834 45.483627,38.8804571 43.1467657,39.6164991 L43.1467657,39.6164991 C43.1467657,39.6164991 43.1467657,39.6164991 43.1467657,39.6164991 C42.5318023,39.8618465 42.0398315,39.9845202 41.424868,40.3525412 L41.424868,40.3525412 C41.424868,40.3525412 41.3018753,40.4752149 41.3018753,40.4752149 C40.6869118,40.8432359 40.0719483,41.2112569 39.4569849,41.7019516 C36.5051602,44.0327514 34.9062551,47.4676143 34.9062551,51.6385192 C34.9062551,60.1030028 41.7938461,68.69016 50.2803421,70.6529388 L72.0500492,75.6825594 L72.0500492,97.8864945 L39.9489556,90.4034004 C18.9172047,85.4964534 1.82121998,64.5192551 1.82121998,43.5420567 C1.82121998,33.6054891 5.63399354,25.2636792 12.5215845,19.7433639 C17.564285,15.6951326 23.9599052,13.6096801 30.8474962,13.6096801 C33.6763282,13.6096801 36.6281529,13.9777012 39.5799776,14.5910695 L72.0500492,22.0741637 L72.0500492,44.4007724 L72.1730419,44.4007724 Z" id="shape"></path>
            </g>
        </g>
    </g>
</svg>