<?xml version="1.0" encoding="UTF-8"?>
<svg width="791px" height="182px" viewBox="0 0 791 182" version="1.1" xmlns="http://www.w3.org/2000/svg" xmlns:xlink="http://www.w3.org/1999/xlink">
    <title>Shape</title>
    <g id="Page-1" stroke="none" stroke-width="1" fill="none" fill-rule="evenodd">
        <g id="Desktop-HD-Copy" transform="translate(-38.000000, -792.000000)" fill="#000000" fill-rule="nonzero">
            <path d="M152.123262,845.659442 C148.164964,842.361974 143.058257,840.772299 137.927284,841.240353 C132.796312,841.708408 128.061681,844.195825 124.765631,848.155045 L85.5846431,895.138935 C79.5756545,902.34157 79.5756545,912.809144 85.5846431,920.01178 L124.765631,966.970714 C131.633241,975.208256 143.879807,976.319989 152.119102,969.453839 C160.358396,962.58769 161.470366,950.343729 154.602756,942.106187 L125.789046,907.575357 L154.602756,873.011253 C157.902859,869.05589 159.49569,863.951576 159.030665,858.821782 C158.565639,853.691988 156.080871,848.957159 152.123262,845.659442 Z M57.4199281,841.159035 C52.268002,841.159035 47.3272068,843.205765 43.6850252,846.848732 C40.0428436,850.491699 37.9977962,855.432319 38.0000018,860.583149 L38.0000018,954.584203 C38.2188006,965.152931 46.8508473,973.606363 57.4240884,973.606363 C67.9973295,973.606363 76.6293761,965.152931 76.848175,954.584203 L76.848175,860.583149 C76.8503816,855.430878 74.8041923,850.488996 71.1602107,846.845789 C67.5162292,843.202583 62.5732958,841.156829 57.4199281,841.159035 Z M398.22546,879.998942 C408.796437,879.780191 417.251667,871.149981 417.251667,860.578989 C417.251667,850.007998 408.796437,841.377788 398.22546,841.159037 L315.961195,841.159037 C305.231271,841.159037 296.53295,849.855508 296.53295,860.583149 L296.53295,895.829385 C296.536842,904.501545 302.28779,912.121457 310.627788,914.504816 L378.797215,933.978839 L378.797215,935.151773 L315.961195,935.151773 C308.925806,935.006186 302.361617,938.675437 298.801214,944.74386 C295.240811,950.812282 295.240811,958.331168 298.801214,964.399591 C302.361617,970.468014 308.925806,974.137265 315.961195,973.991678 L398.22546,973.991678 C408.950788,973.991678 417.645385,965.298931 417.645385,954.575885 L417.645385,919.329649 C417.647097,910.655611 411.893888,903.032703 403.550546,900.654218 L335.381119,881.180194 L335.381119,879.998942 L398.22546,879.998942 Z M268.950666,841.159037 C263.79874,841.159037 258.857945,843.205765 255.215763,846.848732 C251.573582,850.491699 249.528534,855.432319 249.530742,860.583149 L249.530742,935.151773 L206.114646,935.151773 L206.114646,860.583149 C206.260264,853.549257 202.590233,846.986464 196.520519,843.426819 C190.450805,839.867173 182.930318,839.867173 176.860604,843.426819 C170.79089,846.986464 167.120859,853.549257 167.266477,860.583149 L167.266477,954.584203 C167.266476,959.735033 169.31364,964.674778 172.957382,968.316184 C176.601124,971.957591 181.542796,974.002203 186.694722,973.999998 L268.950666,973.999998 C274.102592,974.002203 279.044264,971.957591 282.688006,968.316184 C286.331748,964.674778 288.378913,959.735033 288.378913,954.584203 L288.378913,860.583149 C288.38112,855.430878 286.33493,850.488996 282.690949,846.845789 C279.046967,843.202583 274.104034,841.156829 268.950666,841.159037 L268.950666,841.159037 Z M495.408287,848.146726 C491.719703,843.718603 486.253601,841.159037 480.489725,841.159037 L445.227668,841.159037 C440.075742,841.159037 435.134947,843.205765 431.492765,846.848732 C427.850583,850.491699 425.805536,855.432319 425.807742,860.583149 L425.807742,954.584203 C425.807742,965.30725 434.50234,973.999996 445.227668,973.999996 L493.860684,973.999996 C504.431661,973.781246 512.886891,965.151036 512.886891,954.580044 C512.886891,944.009052 504.431661,935.378842 493.860684,935.160092 L464.655913,935.160092 L464.655913,880.007261 L471.387155,880.007261 L519.82048,938.113222 L519.82048,954.584203 C520.039277,965.152931 528.671324,973.606363 539.244565,973.606363 C549.817806,973.606363 558.449853,965.152931 558.66865,954.584203 L558.66865,931.075621 C558.664784,926.529268 557.065967,922.128305 554.150647,918.639198 L495.408287,848.146726 Z M824.506949,918.639198 L765.747948,848.146726 C762.059364,843.718603 756.593263,841.159035 750.829386,841.159035 L715.567329,841.159035 C710.413962,841.156829 705.471028,843.202583 701.827047,846.845789 C698.183065,850.488996 696.136876,855.430878 696.139082,860.583149 L696.139082,954.584203 C696.141291,959.733592 698.189429,964.671199 701.832931,968.310806 C705.476434,971.950414 710.416845,973.993884 715.567329,973.99168 L764.192025,973.99168 C774.763002,973.772927 783.218232,965.142717 783.218232,954.571725 C783.218232,944.000734 774.763002,935.370523 764.192025,935.151773 L734.987254,935.151773 L734.987254,879.998942 L741.718496,879.998942 L790.151821,938.104903 L790.151821,954.575885 C790.370618,965.144613 799.002665,973.598044 809.575906,973.598044 C820.149147,973.598044 828.781194,965.144613 828.999995,954.575885 L828.999995,931.075621 C829.003132,926.532373 827.413274,922.131759 824.506949,918.639198 L824.506949,918.639198 Z M676.677557,842.939234 C669.788426,839.770844 661.684853,840.901334 655.926361,845.834134 L627.428828,870.257771 L598.881373,845.825815 C593.120679,840.894462 585.015783,839.766974 578.127375,842.938686 C571.238968,846.110398 566.827487,853.000952 566.831007,860.583149 L566.831007,954.584203 C567.049806,965.152931 575.681853,973.606363 586.255094,973.606363 C596.828335,973.606363 605.460381,965.152931 605.679179,954.584203 L605.679179,902.767162 L614.831671,910.5784 C622.105681,916.807687 632.83518,916.807687 640.10919,910.5784 L649.170158,902.808755 L649.170158,954.575885 C649.170158,965.303525 657.868479,973.999996 668.598403,973.999996 C679.328326,973.999996 688.026648,965.303525 688.026648,954.575885 L688.026648,860.57483 C688.017248,852.983605 683.583629,846.09411 676.677557,842.939234 L676.677557,842.939234 Z M540.538395,832.307964 L540.538395,833.040008 C540.538395,833.040008 567.255352,822.475288 572.455631,825.203814 L569.318823,826.127187 C569.593397,826.127187 574.677191,826.459934 574.677191,826.459934 C574.918367,828.585186 576.100143,830.49028 577.897204,831.650789 C580.959129,833.672227 581.017372,834.770293 581.017372,834.770293 C581.017372,834.770293 579.428166,835.41915 579.428166,836.242699 C580.905911,835.819791 582.434094,835.598727 583.971131,835.585523 C585.357566,835.634996 586.732558,835.85573 588.064791,836.242699 C588.064791,836.242699 587.906703,835.410831 585.768348,834.770293 C583.629992,834.129755 581.566522,831.867074 580.526466,830.610954 C579.257614,828.977585 578.941574,826.797373 579.694421,824.871067 C580.434941,822.974408 583.0226,821.917936 588.272802,819.18941 C594.504817,815.970082 595.927614,813.557665 596.801261,811.7026 C597.674908,809.847535 598.989539,806.129087 599.713418,804.382164 C600.315271,802.749341 601.350827,801.311374 602.708779,800.222826 C603.632348,799.515738 607.842495,797.926871 607.842495,797.926871 C607.842495,797.926871 604.630802,795.190026 603.582426,794.366477 C602.272087,793.125737 600.614942,792.313299 598.83145,792.037247 C596.60157,791.746093 594.338408,793.226818 592.807446,794.216741 C591.276484,795.206663 588.314404,798.101563 587.11626,798.933431 C585.918116,799.765298 582.84787,800.597166 577.963768,803.583571 C573.079665,806.569976 553.693022,818.93985 553.693022,818.93985 L558.685291,818.989762 L536.278325,830.610954 L538.516526,830.610954 L535.288192,833.106557 C537.076223,833.515814 538.953001,833.230343 540.538395,832.307964 L540.538395,832.307964 Z" id="Shape"></path>
        </g>
    </g>
</svg>