<?xml version="1.0" encoding="UTF-8"?>
<svg width="60px" height="60px" viewBox="0 0 60 60" version="1.1" xmlns="http://www.w3.org/2000/svg" xmlns:xlink="http://www.w3.org/1999/xlink">
    <title>kusama_icon</title>
    <defs>
        <polygon id="path-1" points="0 0.000172839506 37.9287154 0.000172839506 37.9287154 22.9825988 0 22.9825988"></polygon>
    </defs>
    <g id="Page-1" stroke="none" stroke-width="1" fill="none" fill-rule="evenodd">
        <g id="Desktop-HD-Copy" transform="translate(-960.000000, -543.000000)">
            <g id="kusama_icon" transform="translate(960.000000, 543.000000)">
                <rect id="Rectangle" fill-rule="nonzero" x="0" y="0" width="60" height="60" rx="4"></rect>
                <g id="Group" transform="translate(11.000000, 19.000000)">
                    <g id="Clipped">
                        <mask id="mask-2" fill="white">
                            <use xlink:href="#path-1"></use>
                        </mask>
                        <g id="path-1"></g>
                        <path d="M35.7000448,1.23031482 C35.1323195,0.786981481 34.447479,0.17858642 33.2114571,0.0191419753 C32.0446595,-0.131660494 30.8634946,0.640067902 30.0624097,1.15124074 C29.2613248,1.66198148 27.7453586,3.16654938 27.1162457,3.62111727 C26.4871329,4.07482098 24.8849631,4.50087036 22.3110424,6.03395679 C19.7366863,7.56704321 9.61079868,14.0113642 9.61079868,14.0113642 L12.2421885,14.0398827 L0.514566452,20.0581543 L1.68745927,20.0581543 L-4.35372241e-05,21.3354383 C-4.35372241e-05,21.3354383 1.48675267,21.7329691 2.74541381,20.9379074 L2.75020291,21.2969815 C2.75020291,21.2969815 16.7252165,15.8296358 19.4332318,17.2490802 L17.7910077,17.7300062 C17.9342452,17.7300062 20.5943696,17.9006852 20.5943696,17.9006852 C20.5943696,17.9006852 20.6801379,19.5469815 22.2823077,20.5974136 C23.8840422,21.6478457 23.9127769,22.2156234 23.9127769,22.2156234 C23.9127769,22.2156234 23.0833926,22.5565493 23.0833926,22.9825988 C23.0833926,22.9825988 24.3128838,22.6131543 25.4574775,22.6416727 C26.6016357,22.6697593 27.6025564,22.9825988 27.6025564,22.9825988 C27.6025564,22.9825988 27.5167881,22.5280309 26.4009291,22.2156234 C25.2855056,21.9036481 24.198381,20.7110556 23.6550364,20.0581543 C23.111692,19.4052531 22.7464147,18.241179 23.2009432,17.0771049 C23.586683,16.0888951 24.9232758,15.5422901 27.6883248,14.1245741 C30.9505692,12.4527839 31.6928787,11.2005617 32.150455,10.2352531 C32.6080313,9.27037655 33.2946132,7.33975926 33.6738225,6.43148766 C34.1588271,5.26698148 34.7535455,4.64303086 35.2398563,4.27401852 C35.7261671,3.90457407 37.9287154,3.08142593 37.9287154,3.08142593 C37.9287154,3.08142593 36.2468724,1.6567963 35.7000448,1.23031482" id="Path" fill="#000000" fill-rule="nonzero" mask="url(#mask-2)"></path>
                    </g>
                </g>
            </g>
        </g>
    </g>
</svg>