<?xml version="1.0" encoding="UTF-8"?>
<svg width="757px" height="160px" viewBox="0 0 757 160" version="1.1" xmlns="http://www.w3.org/2000/svg" xmlns:xlink="http://www.w3.org/1999/xlink">
    <title>Polkadot_Logo_Horizontal_Pink-Black</title>
    <g id="Page-1" stroke="none" stroke-width="1" fill="none" fill-rule="evenodd">
        <g id="Desktop-HD-Copy" transform="translate(-90.000000, -298.000000)" fill-rule="nonzero">
            <g id="Polkadot_Logo_Horizontal_Pink-Black" transform="translate(90.000000, 298.000000)">
                <path d="M240.866204,23.5522388 C232.106603,23.5522388 223.664708,24.6596547 220.226678,25.5958207 C215.222812,27.0114863 213.974683,29.2149014 213.032912,33.7815647 L193.176304,125.971081 C192.858598,127.85483 192.552239,129.430329 192.552239,131.005828 C192.552239,135.572491 195.525057,138.552239 200.370069,138.552239 C205.69164,138.552239 207.881541,135.092991 208.970817,129.738579 L214.598748,103.468848 C218.501989,103.936931 223.664708,104.41643 231.017326,104.41643 C263.389271,104.41643 283.552239,86.8005263 283.552239,60.2111289 C283.552239,36.9211458 267.440019,23.5522388 240.866204,23.5522388 Z M230.234408,89.3121912 C225.230543,89.3121912 221.315955,89.1523579 217.730418,88.6842749 L228.203361,39.7524771 C231.482538,39.2843941 236.338897,38.6450612 241.342762,38.6450612 C258.544259,38.6450612 267.30386,46.8308053 267.30386,60.3595455 C267.292513,77.6671996 254.777176,89.3121912 230.234408,89.3121912 L230.234408,89.3121912 Z" id="Shape" fill="#000000"></path>
                <path d="M750.113814,108.895666 C747.447281,108.895666 745.715174,110.458923 742.421891,114.049883 C736.610216,119.985729 732.997861,123.259507 728.451079,123.259507 C724.371511,123.259507 722.172191,119.985729 722.172191,114.672921 C722.172191,111.704998 722.79894,108.114038 723.585226,104.217223 L729.396901,77.0527996 L746.831927,77.0527996 C752.32453,77.0527996 755.629208,73.9262855 755.629208,68.3076224 C755.629208,65.1811083 753.589424,62.8475506 748.883106,62.8475506 L732.530647,62.8475506 L735.356717,50.2055587 C735.675789,48.336447 735.983466,46.6145986 735.983466,45.0513415 C735.983466,40.6787529 732.997861,37.5522388 728.132007,37.5522388 C722.947081,37.5522388 720.59962,40.9846076 719.494262,46.297416 L715.881907,62.8475506 L708.497661,62.8475506 C702.845521,62.8475506 699.552239,65.9740647 699.552239,71.5927278 C699.552239,74.7192419 701.751559,77.0527996 706.457877,77.0527996 L712.896301,77.0527996 L707.084626,103.900041 C706.457877,106.867963 705.671591,111.704998 705.671591,116.700624 C705.671591,129.342616 712.269552,138.552239 726.3999,138.552239 C734.570432,138.552239 741.783746,134.496833 747.287745,129.64847 C752.632207,124.970027 756.552239,119.192773 756.552239,115.443221 C756.552239,111.863589 753.726169,108.895666 750.113814,108.895666 Z" id="Path" fill="#000000"></path>
                <path d="M391.052239,32.5566922 C391.052239,28.0222793 387.912017,25.0522388 383.053776,25.0522388 C377.876962,25.0522388 375.533174,28.4870566 374.429545,33.8036558 L354.837294,124.559931 C354.370812,126.430376 354.052239,127.994749 354.052239,129.559121 C354.052239,134.093534 357.19246,137.052239 361.891415,137.052239 C367.227516,137.052239 369.571304,133.617421 370.674933,128.300822 L390.267183,37.5558825 C390.585757,35.6741012 391.052239,34.1210647 391.052239,32.5566922 Z" id="Path" fill="#000000"></path>
                <path d="M669.503698,60.7413008 C644.475049,60.7413008 627.426056,85.5710084 627.426056,109.154131 C627.426056,109.596102 627.437407,110.038073 627.448757,110.468712 C623.521359,116.418322 618.504279,122.583252 615.064968,122.583252 C612.567778,122.583252 611.625657,120.237405 611.625657,116.644974 C611.625657,112.270594 612.874251,104.927074 614.281758,98.5241603 L627.267144,38.552087 C627.584968,36.6822095 627.891441,35.1183119 627.891441,33.5544143 C627.891441,29.0213777 624.917515,26.0522388 620.070698,26.0522388 C614.747144,26.0522388 612.567778,29.486014 611.466745,34.8009993 L604.429211,67.280206 C600.672076,63.3817946 595.18961,60.7186356 586.903481,60.7186356 C570.28582,60.7186356 553.566001,73.4904661 547.050607,93.0845165 C539.876863,111.601971 533.463626,122.560586 528.401142,122.560586 C526.52825,122.560586 525.427216,120.996689 525.427216,118.344863 C525.427216,110.536707 529.808649,91.4866211 531.681541,82.2732243 C532.305838,78.8394492 532.623662,77.4342078 532.623662,75.405674 C532.623662,68.5381237 521.204696,60.4126557 506.346418,60.4126557 C489.161214,60.4126557 473.599184,71.2806108 465.801142,87.4182208 C454.211912,107.862216 443.576155,122.560586 438.309356,122.560586 C435.959727,122.560586 435.176518,119.591448 434.552221,116.780965 L430.658875,95.260374 L454.586491,75.7456517 C456.777207,73.8757742 459.592221,71.2126152 459.592221,67.77884 C459.592221,63.5631161 456.777207,60.7526334 452.554687,60.7526334 C449.421849,60.7526334 446.765747,62.622511 444.109646,64.8097011 L408.138766,94.4784252 L420.18203,38.5747522 C420.499854,36.7048746 420.96524,35.140977 420.96524,33.5770794 C420.96524,29.0440429 417.832402,26.074904 412.985584,26.074904 C407.820942,26.074904 405.482665,29.5086792 404.381631,34.8236645 L384.835448,125.552391 C384.370063,127.422268 384.052239,128.986166 384.052239,130.550063 C384.052239,135.0831 387.185077,138.040906 391.872982,138.040906 C397.196536,138.040906 399.534814,134.607131 400.635847,129.292146 L403.144387,117.585579 L417.843753,105.720356 L421.441976,123.829837 C422.849483,131.0147 426.606618,138.040906 436.300253,138.040906 C445.948485,138.040906 453.542212,129.246815 461.147289,117.358927 C463.451514,129.813445 472.327887,138.040906 484.643572,138.040906 C497.004659,138.040906 505.4497,130.697387 510.920815,120.860698 L510.920815,121.17801 C510.920815,131.332012 516.085457,138.040906 525.154795,138.040906 C533.361468,138.040906 540.171985,133.099896 546.256047,122.605917 C549.706708,131.751318 557.425294,138.040906 568.163209,138.040906 C580.83077,138.040906 589.900108,130.391407 595.689048,119.772769 L595.689048,120.713374 C595.689048,131.955305 601.319075,138.052239 610.547325,138.052239 C618.697243,138.052239 625.621269,133.326548 631.535067,125.643051 C636.030009,133.326548 644.08912,138.052239 654.974596,138.052239 C680.003245,138.052239 697.052239,113.222531 697.052239,89.4807524 C697.040888,72.7651802 686.870516,60.7413008 669.503698,60.7413008 Z M513.565566,92.4498913 C509.025222,111.964614 499.331586,123.05922 488.378005,123.05922 C481.022647,123.05922 476.959038,117.438255 476.959038,109.006807 C476.959038,92.4498913 489.002302,74.6463904 505.109174,74.6463904 C509.955992,74.6463904 513.713127,76.0516317 516.993526,78.0801655 L513.565566,92.4498913 Z M600.683426,84.1770997 C595.677697,107.13693 584.25873,123.05922 571.750081,123.05922 C564.871459,123.05922 560.7965,117.744235 560.7965,109.006807 C560.7965,92.3025677 572.374378,74.9637029 587.856953,74.9637029 C593.804805,74.9637029 598.333798,76.9922368 601.625548,79.6440632 L600.683426,84.1770997 Z M656.836137,123.05922 C647.766799,123.05922 644.009664,116.49765 644.009664,108.224858 C644.009664,93.0731839 654.486509,75.7456517 667.630806,75.7456517 C676.700145,75.7456517 680.45728,82.3072221 680.45728,90.5800138 C680.45728,105.879012 669.980435,123.05922 656.836137,123.05922 Z" id="Shape" fill="#000000"></path>
                <path d="M322.36959,60.0522388 C297.198358,60.0522388 280.052239,84.785709 280.052239,108.277426 C280.052239,125.074963 290.280549,137.052239 307.734887,137.052239 C332.90612,137.052239 350.052239,112.318769 350.052239,88.6690105 C350.052239,72.0295149 339.823928,60.0522388 322.36959,60.0522388 Z M309.629864,122.128621 C300.50886,122.128621 296.730321,115.592482 296.730321,107.351755 C296.730321,92.2588068 307.266851,74.9984344 320.486029,74.9984344 C329.607033,74.9984344 333.385572,81.5345728 333.385572,89.7752999 C333.374157,105.015001 322.837627,122.128621 309.629864,122.128621 Z" id="Shape" fill="#000000"></path>
                <ellipse id="Oval" fill="#E6007A" cx="84.0522388" cy="17.0522388" rx="28.5" ry="16.5"></ellipse>
                <ellipse id="Oval" fill="#E6007A" cx="84.0522388" cy="143.052239" rx="28.5" ry="16.5"></ellipse>
                <ellipse id="Oval" fill="#E6007A" transform="translate(28.968697, 48.307127) rotate(-59.999272) translate(-28.968697, -48.307127) " cx="28.9686973" cy="48.3071266" rx="28.8476394" ry="16.7852527"></ellipse>
                <ellipse id="Oval" fill="#E6007A" transform="translate(138.412369, 111.522194) rotate(-59.999272) translate(-138.412369, -111.522194) " cx="138.412369" cy="111.522194" rx="28.8476394" ry="16.7739114"></ellipse>
                <ellipse id="Oval" fill="#E6007A" transform="translate(28.972712, 111.518348) rotate(-30.000728) translate(-28.972712, -111.518348) " cx="28.9727118" cy="111.518348" rx="16.7852527" ry="28.8476394"></ellipse>
                <ellipse id="Oval" fill="#E6007A" transform="translate(138.419162, 48.310803) rotate(-30.000728) translate(-138.419162, -48.310803) " cx="138.419162" cy="48.3108025" rx="16.7739114" ry="28.8476394"></ellipse>
            </g>
        </g>
    </g>
</svg>