<?xml version="1.0" encoding="UTF-8"?>
<svg width="2819px" height="1533px" viewBox="0 0 2819 1533" version="1.1" xmlns="http://www.w3.org/2000/svg" xmlns:xlink="http://www.w3.org/1999/xlink">
    <title>background</title>
    <defs>
        <linearGradient x1="23.8298662%" y1="42.6965235%" x2="73.1610858%" y2="59.0923539%" id="linearGradient-1">
            <stop stop-color="#FFF45C" offset="0%"></stop>
            <stop stop-color="#22262A" offset="100%"></stop>
        </linearGradient>
        <linearGradient x1="115.897863%" y1="30.9349456%" x2="11.7401593%" y2="92.5923814%" id="linearGradient-2">
            <stop stop-color="#FFFFFF" stop-opacity="0.501924819" offset="0%"></stop>
            <stop stop-color="#E3E3E3" offset="100%"></stop>
        </linearGradient>
        <linearGradient x1="86.653161%" y1="9.40541363%" x2="86.653161%" y2="108.793339%" id="linearGradient-3">
            <stop stop-color="#FFFFFF" stop-opacity="0" offset="0%"></stop>
            <stop stop-color="#E9E9E9" offset="100%"></stop>
        </linearGradient>
        <radialGradient cx="54.7775652%" cy="31.6889595%" fx="54.7775652%" fy="31.6889595%" r="92.998576%" gradientTransform="translate(0.547776,0.316890),scale(1.000000,0.866612),rotate(-180.000000),translate(-0.547776,-0.316890)" id="radialGradient-4">
            <stop stop-color="#EAEDF0" offset="0%"></stop>
            <stop stop-color="#E8E8E8" offset="100%"></stop>
        </radialGradient>
        <linearGradient x1="42.8026197%" y1="38.4159321%" x2="53.3188053%" y2="57.3233569%" id="linearGradient-5">
            <stop stop-color="#EAEDF0" stop-opacity="0" offset="0%"></stop>
            <stop stop-color="#F4F4F4" offset="100%"></stop>
        </linearGradient>
        <linearGradient x1="48.6628483%" y1="18.7277413%" x2="60.2465583%" y2="94.7327191%" id="linearGradient-6">
            <stop stop-color="#FFFFFF" stop-opacity="0" offset="0%"></stop>
            <stop stop-color="#F1F1F1" offset="100%"></stop>
        </linearGradient>
        <radialGradient cx="108.722866%" cy="-76.021593%" fx="108.722866%" fy="-76.021593%" r="94.0432707%" gradientTransform="translate(1.087229,-0.760216),scale(1.000000,0.773481),rotate(-100.156204),translate(-1.087229,0.760216)" id="radialGradient-7">
            <stop stop-color="#EAEDF0" offset="0%"></stop>
            <stop stop-color="#F5F5F5" offset="100%"></stop>
        </radialGradient>
    </defs>
    <g id="Page-1" stroke="none" stroke-width="1" fill="none" fill-rule="evenodd">
        <g id="background" transform="translate(273.000000, 0.000000)" fill-rule="nonzero">
            <g id="Mask" transform="translate(0.000000, 3.000000)" fill="url(#linearGradient-1)">
                <rect id="Path" x="0" y="0" width="2116" height="1118"></rect>
            </g>
            <g id="Clipped">
                <g id="Group" transform="translate(1136.390216, 766.667515) rotate(-90.000000) translate(-1136.390216, -766.667515) translate(370.890216, -642.332485)">
                    <g id="Path" transform="translate(0.667515, 0.109784)">
                        <g transform="translate(0.000000, 0.000000)" fill="url(#linearGradient-2)">
                            <path d="M522.159056,0.429422 L0.472488236,1705.85052 C0.472488236,1705.85052 80.2933837,1319.95232 513.606817,1319.95232 C946.92025,1319.95232 1269.05458,1531.57391 1528.47249,1361.44675 L1528.47249,394.546377 C1528.47249,394.546377 1141.3336,154.943847 1001.08443,100.016055 C860.835261,45.088263 522.159056,0.429422 522.159056,0.429422 Z"></path>
                        </g>
                        <g transform="translate(114.149312, 272.000000)" fill="url(#linearGradient-3)">
                            <path d="M294.552803,0.609597478 L0.472488236,1333.85052 C0.472488236,1333.85052 72.6007861,947.95232 464.154404,947.95232 C855.70802,947.95232 1180.43372,651.12716 1414.85069,481 L1414.85069,15.1897017 C1414.85069,15.1897017 1052.69044,174.520051 925.957536,119.592259 C799.224633,64.6644674 294.552803,0.609597478 294.552803,0.609597478 Z"></path>
                        </g>
                    </g>
                    <g id="Path" transform="translate(113.167515, 1169.609784)">
                        <g transform="translate(50.000000, 0.000000)" fill="url(#radialGradient-4)">
                            <path d="M1208.97262,335.07784 L329.388953,1575.4053 C329.388953,1575.4053 -148.495084,791.3856 47.7374909,281.15056 C243.970067,-229.08449 761.10062,115.22046 1098.15893,98.62745 C1178.01095,94.69642 1318.06228,25.31403 1345.18111,44.70017 C1432.53184,107.14364 1208.97262,335.07784 1208.97262,335.07784 Z"></path>
                        </g>
                        <g transform="translate(0.500000, 4.500000)" fill="url(#linearGradient-5)">
                            <path d="M1276,309.938498 L346.666625,1621 C346.666625,1621 -155.798767,796.160569 49.5,285.925529 C254.798768,-224.309521 828.190663,108.989606 1180.82149,92.3965958 C1533.45232,75.8035858 1276,309.938498 1276,309.938498 Z"></path>
                        </g>
                    </g>
                    <polygon id="Path" fill="url(#linearGradient-6)" points="1531 1244.57631 410.167515 1594.35276 410.167515 2818 1531 2388.60978"></polygon>
                    <path d="M1530.16751,1720.60978 C1303.38873,1628.9047 1228.65381,663.979391 890.313413,454.406342 C597.800431,273.21947 443.633658,558.660109 410.167515,629.209925 L410.167515,272.609784 L1530.16751,273.21947 L1530.16751,1720.60978 Z" id="Path" fill="url(#radialGradient-7)"></path>
                </g>
            </g>
        </g>
    </g>
</svg>