<?xml version="1.0" encoding="UTF-8"?>
<svg width="1056px" height="333px" viewBox="0 0 1056 333" version="1.1" xmlns="http://www.w3.org/2000/svg" xmlns:xlink="http://www.w3.org/1999/xlink">
    <title>Claimeer</title>
    <g id="Page-1" stroke="none" stroke-width="1" fill="none" fill-rule="evenodd">
        <g id="Desktop-HD-Copy-2" transform="translate(-192.000000, -124.000000)" fill="#6D767E" fill-rule="nonzero">
            <path d="M936.883444,398.326618 C934.52772,398.319991 932.223094,398.916714 929.991931,400.204877 C927.760768,401.493039 926.091678,403.190542 924.919603,405.234 C923.012557,408.558847 923.009967,411.891021 924.938029,415.230522 C928.766977,421.862455 933.007631,427.573732 937.637131,432.381856 C942.332862,437.258764 947.409513,441.345766 952.858159,444.654102 C958.287957,447.950993 964.000852,450.543603 969.995957,452.433893 C975.919192,454.301523 982.05025,455.541566 988.389918,456.150185 C994.631602,456.749397 1001.00821,456.79532 1007.51978,456.283584 C1013.95647,455.777733 1020.4473,454.770184 1026.99179,453.257897 C1033.42902,451.770396 1039.86189,449.914552 1046.2901,447.689255 C1052.70663,445.467998 1059.06978,442.884098 1065.37919,439.936667 C1071.65097,437.006821 1077.73421,433.839985 1083.62914,430.436551 C1086.86126,428.570485 1088.59805,425.826818 1088.98569,422.298709 C1089.28149,419.606428 1088.75447,416.968922 1087.2777,414.411084 C1085.80093,411.853247 1083.7803,410.078077 1081.30081,408.988112 C1078.05156,407.559764 1074.80708,407.692037 1071.57496,409.558103 C1064.52734,413.627044 1057.59496,417.259909 1050.77689,420.454936 C1044.06034,423.602384 1037.47474,426.225879 1031.01833,428.320925 C1024.63778,430.39135 1018.47652,431.936178 1012.53267,432.947715 C1006.73648,433.934123 1001.15301,434.368983 995.781479,434.240512 C990.551092,434.115418 985.526277,433.412181 980.708432,432.121271 C975.981952,430.854842 971.532577,428.994212 967.361395,426.536799 C963.184474,424.076005 959.299925,420.947393 955.695087,417.16709 C951.983797,413.275154 948.603042,408.661005 945.531473,403.340892 C943.603411,400.001391 940.716369,398.337547 936.883444,398.326618 Z M634.68,191.1 C629.203695,191.1 625.166872,192.843363 622.366052,195.933922 C619.698439,198.877495 618.14,203.221823 618.14,209.18 C618.14,215.014171 619.714174,219.262044 622.408914,222.142629 C625.199985,225.126187 629.222098,226.82 634.68,226.82 C639.965416,226.82 643.924005,225.1433 646.731086,222.142629 C649.440843,219.245991 650.956894,214.981861 650.779975,209.116856 C650.769337,203.216751 649.266728,198.907606 646.710307,195.985982 C643.9717,192.856146 640.027952,191.1 634.68,191.1 L634.68,191.1 Z M429.2,124 C436.588547,124 442.636791,125.723756 447.408736,128.988771 C452.216594,132.278358 455.907109,137.170627 458.359253,143.766047 C460.624836,149.859684 461.8,157.431719 461.8,166.5 C461.8,177.775075 461.243832,189.124339 460.131159,200.547775 C459.016007,211.996678 457.268647,223.2225 454.889657,234.225331 C452.509503,245.23354 449.53401,255.944139 445.963784,266.357297 C442.372934,276.830608 438.033352,286.817359 432.946333,296.318115 C429.734646,302.316412 426.225457,308.061875 422.419167,313.554748 L422.419999,319.831505 L422.423402,320.658479 C422.480583,327.50234 423.253805,333.486795 424.782672,338.605176 C426.189488,343.314949 428.588488,346.967231 432.085718,349.482782 C435.690241,352.07551 440.624424,353.238163 446.785388,353.239998 L447.4837,353.234794 C451.124168,353.178983 454.392103,352.676836 457.280945,351.6934 C460.162711,350.712374 462.652682,349.250362 464.738541,347.2872 C466.858663,345.291791 468.556995,342.787297 469.865371,339.796725 C470.963633,337.286412 471.78484,334.444052 472.346241,331.274678 C471.880466,327.279275 471.650777,323.339788 471.622886,319.166835 L471.62,318.306766 C471.619562,310.356806 472.390807,303.019627 473.919469,296.293516 C475.469428,289.473696 477.686547,283.354963 480.55362,277.930771 C483.507957,272.341485 487.189282,267.638081 491.579863,263.806301 C495.976474,259.969259 500.971216,257.008827 506.567254,254.930299 C512.122631,252.866873 518.23162,251.82 524.9,251.82 C531.369183,251.82 537.999581,253.068698 544.786239,255.59532 L545.627066,255.913886 C547.361066,256.582402 549.046974,257.304454 550.684903,258.079807 C551.415883,256.736581 552.463583,255.6983 553.772498,254.865354 C555.863054,253.535 558.95657,252.7 563.18,252.7 C567.235871,252.7 570.207548,253.485972 572.215418,254.728939 C574.916756,256.401196 576.42,258.97681 576.42,262.64 L576.42,339.191598 L576.42222,339.720045 C576.466342,344.859473 577.03059,348.632448 578.621164,350.812124 C580.023315,352.733591 582.847835,353.238564 586.484454,353.239997 L587.140635,353.23477 C591.206702,353.168111 594.980477,352.462924 598.457391,351.096994 C602.139085,349.650614 605.491172,347.611242 608.515285,344.981578 C611.612887,342.288011 614.336743,339.120385 616.693388,335.484418 C618.295614,333.012412 619.730632,330.418858 620.999013,327.704074 L621,262.352453 C621.115372,258.658378 622.605005,256.338201 625.204582,254.728939 C627.212452,253.485972 630.184129,252.7 634.24,252.7 C638.40765,252.7 641.46938,253.465749 643.534917,254.686294 C646.44332,256.404895 647.92,258.974147 647.92,262.42 L647.92,339.191598 L647.92222,339.720045 C647.966342,344.859473 648.53059,348.632448 650.121164,350.812124 C651.525313,352.736328 654.355885,353.24 658,353.24 L653.794446,377.74 L653.105848,377.735519 C647.870302,377.669463 643.312051,376.868445 639.419129,375.389134 C635.067796,373.735628 631.510745,371.199095 628.727707,367.807266 C626.778219,365.431329 625.186421,362.621174 623.978001,359.363135 C622.343362,361.172924 620.665523,362.858806 618.912773,364.426005 L618.284641,364.979795 C613.427267,369.202518 607.971979,372.388828 601.91906,374.539207 C595.937018,376.664406 589.405575,377.74 582.32,377.74 C576.783049,377.74 571.987172,376.934991 567.919129,375.389134 C563.567796,373.735628 560.010745,371.199095 557.227707,367.807266 C555.66445,365.902048 554.331192,363.717621 553.241179,361.24694 C553.213005,361.2808 553.18481,361.314578 553.156592,361.348271 C547.726875,367.831515 541.936537,372.142159 535.869017,374.407366 C529.886597,376.640803 524.101628,377.74 518.52,377.74 C509.356192,377.74 501.249046,375.500144 494.180004,371.081993 C489.530156,368.175838 485.519532,364.297916 482.172912,359.425202 C480.534002,361.708939 478.75767,363.75674 476.821023,365.576892 L476.341616,366.019844 C471.972824,369.987517 466.917581,372.946826 461.170911,374.889362 C455.578067,376.779901 449.396171,377.74 442.62,377.74 C431.700621,377.74 422.789714,375.240193 415.819068,370.432851 C408.786994,365.583145 403.575247,358.697379 400.257783,349.715954 C399.29484,347.108963 398.476269,344.370657 397.803792,341.500587 L396.587441,342.568723 C395.77513,343.274166 394.959243,343.967059 394.135262,344.651882 L393.126685,345.482783 C384.896932,352.203385 375.837345,357.981535 365.945856,362.814018 C356.065096,367.64126 345.31826,371.341387 333.70235,373.905938 C322.145521,376.457446 309.538601,377.74 295.88,377.74 C279.729798,377.74 265.262823,374.896615 252.467585,369.260617 C239.574645,363.581584 228.599449,355.294231 219.543566,344.396473 C210.573276,333.601718 203.713404,320.610955 198.999371,305.404395 C194.344874,290.389888 192,273.350379 192,254.28 C192,241.989998 193.052389,230.337397 195.150646,219.321552 C197.261389,208.240151 200.393432,197.913859 204.539426,188.340381 C208.704699,178.722388 213.744252,170.015339 219.65118,162.215165 C225.61923,154.334279 232.431775,147.642587 240.082781,142.133863 C247.749929,136.613516 256.182846,132.356127 265.383656,129.365864 C274.570013,126.380298 284.367971,124.88 294.78,124.88 C303.34261,124.88 311.867317,126.024947 320.353636,128.318546 C328.915331,130.632518 337.05546,134.406923 344.76924,139.652294 C352.488418,144.901335 359.453633,152.063996 365.631102,161.174114 C368.012173,164.544398 368.401416,167.475263 367.706096,169.908885 C367.106022,172.009143 365.558883,174.366411 362.723165,176.797026 C362.697031,176.819428 362.670919,176.841722 362.644352,176.863472 L362.591286,176.905273 C359.824132,179.079466 357.315779,180.179413 355.160453,180.473321 C352.547363,180.829651 349.616028,179.937966 346.620786,176.69312 C346.589342,176.659056 346.558156,176.625019 346.527659,176.589609 L346.482844,176.535604 C339.67967,168.344027 331.984736,162.114972 323.374339,157.879212 C314.809851,153.666036 305.275057,151.58 294.78,151.58 C287.599207,151.58 280.796817,152.644098 274.374911,154.784733 C267.9616,156.922504 262.031319,160.02624 256.583504,164.094862 C251.097149,168.192266 246.171579,173.231924 241.796812,179.203828 C237.35594,185.265971 233.55419,192.105944 230.382308,199.718462 C227.18428,207.393729 224.737039,215.780884 223.031489,224.877154 C221.314534,234.034245 220.46,243.835452 220.46,254.28 C220.46,269.852275 222.23074,283.820317 225.802725,296.179386 C229.319339,308.34687 234.328667,318.732458 240.871128,327.315042 C247.294016,335.740766 255.128349,342.169983 264.383915,346.590552 C273.698965,351.039531 284.199617,353.23921 295.873709,353.24 L297.177461,353.235855 C309.136475,353.159244 320.229325,352.021228 330.454669,349.810343 C340.959244,347.539084 350.578939,344.208908 359.309539,339.808118 C368.014172,335.420417 375.941089,330.042943 383.088876,323.673628 C387.424759,319.809969 391.461699,315.634385 395.199903,311.147075 L395.500019,170.227828 L395.502305,169.476318 C395.592783,154.552347 398.418481,143.493214 403.601175,136.144618 C409.233757,128.158121 417.703935,124 429.2,124 Z M526.88,277.2 C523.546794,277.2 520.435594,277.702884 517.550039,278.728859 C514.75997,279.720883 512.279244,281.207962 510.109077,283.192115 C507.866737,285.242254 505.95837,287.814367 504.357656,290.887738 C502.681235,294.106466 501.421385,297.866096 500.549949,302.15624 C499.643881,306.616882 499.2,311.705486 499.2,317.42 C499.2,324.997997 500.06753,331.51465 501.859515,336.959527 C503.487819,341.907066 505.904666,345.746418 509.234327,348.385016 C512.460997,350.942 516.530013,352.14 521.38,352.14 C525.999587,352.14 530.331403,351.08421 534.373972,348.966674 C538.506007,346.802274 542.273957,343.289486 545.745234,338.510835 L546.09181,338.026532 C547.272705,336.351376 548.395976,334.50058 549.493949,332.419122 L549.183415,282.367049 C546.851639,281.098901 544.570474,280.123323 542.335796,279.449858 C537.354458,277.948633 532.202329,277.2 526.88,277.2 Z M428.98,149.6 C427.733395,149.6 426.66509,149.979471 425.801903,150.803422 C424.635057,151.91723 423.959651,153.859708 423.439216,156.40984 C422.745975,159.806721 422.42,164.418522 422.42,170.24 L422.419197,259.116642 C424.05467,253.96838 425.531283,248.636178 426.849564,243.12021 C429.594949,231.632941 431.580132,219.495216 432.808323,206.707579 C434.043244,193.849871 434.66,180.447321 434.66,166.5 C434.66,162.052244 434.348197,158.442368 433.673919,155.677825 C433.134617,153.46669 432.437727,151.736352 431.403857,150.593653 C430.777282,149.901123 429.95551,149.6 428.98,149.6 Z M1145.52,239.499 C1148.69396,239.499 1151.31555,240.118466 1153.42302,241.220098 C1155.81185,242.468804 1157.61297,244.334365 1158.80854,246.834178 C1160.65624,250.69756 1161.62,255.226178 1161.62,260.44 L1161.62,261.798641 C1162.4772,261.491332 1163.42715,261.120826 1164.47081,260.695631 C1168.52465,259.044068 1173.216,257.390798 1178.5461,255.739219 C1184.14464,254.004459 1189.7829,253.14 1195.46,253.14 C1202.19153,253.14 1207.62363,254.493416 1211.81798,257.010028 C1216.23089,259.657772 1219.51143,263.721379 1221.54743,269.29824 C1223.36157,274.267415 1224.32,280.767316 1224.32,288.82 C1224.32,292.266945 1224.13479,296.650649 1223.76012,301.970994 C1223.39408,307.168719 1223.02805,312.659275 1222.66201,318.442659 C1222.29462,324.24742 1221.92722,329.721529 1221.55983,334.864988 C1221.20136,339.883671 1221.02,344.041968 1221.02,347.34 C1221.02,349.831859 1221.05863,351.720277 1221.80953,352.671423 C1222.21186,353.181036 1222.88718,353.24 1223.62,353.24 C1224.56379,353.24 1225.41832,353.118628 1226.17551,352.834683 C1227.0195,352.518187 1227.8338,352.064258 1228.62455,351.48438 C1229.73253,350.671861 1230.80378,349.896086 1231.83812,349.156739 C1234.13799,347.457792 1236.7232,347.085149 1239.62556,348.246093 C1241.69106,349.072292 1243.44477,350.313945 1244.89031,351.965982 C1246.78851,354.332507 1247.63441,356.588245 1247.74501,358.80025 C1247.85585,361.017056 1247.36589,363.125905 1246.25663,365.122572 C1244.10262,368.113183 1241.75411,370.34466 1238.9288,372.228201 C1236.16244,374.072441 1233.14539,375.457617 1229.87584,376.379799 C1226.65848,377.287261 1223.39977,377.74 1220.1,377.74 C1215.74979,377.74 1211.99308,377.123443 1208.81718,375.953372 C1205.36517,374.681581 1202.56757,372.796818 1200.39036,370.347455 C1198.26723,367.958933 1196.64415,364.965868 1195.58105,361.333595 C1194.6044,357.996696 1194.1,354.213854 1194.1,349.98 C1194.1,345.792534 1194.28573,341.006806 1194.65961,335.62289 C1195.02595,330.347599 1195.39229,324.925772 1195.75863,319.35741 C1196.1259,313.774814 1196.49318,308.449312 1196.86046,303.380903 C1197.21903,298.432655 1197.4,294.165721 1197.4,290.58 C1197.4,286.000878 1197.09799,282.73269 1195.96416,281.002105 C1195.16773,279.786513 1193.47711,279.62 1191.5,279.62 C1187.70393,279.62 1183.36911,280.318923 1178.49058,281.674072 C1173.21258,283.140182 1168.08119,284.569639 1163.09642,285.962444 C1161.93409,286.287212 1160.82074,286.575756 1159.75645,286.828452 C1158.94501,303.314559 1156.60544,317.541195 1152.77375,329.515447 L1152.51272,330.320731 C1147.31932,346.136812 1139.916,357.891751 1130.47079,365.711149 C1120.80376,373.714181 1109.39949,377.74 1096.24,377.74 C1087.82668,377.74 1080.0002,376.405027 1072.75654,373.756809 C1065.93827,371.264109 1059.70708,367.804514 1054.06205,363.379613 C1049.52599,366.122839 1045.09332,368.448272 1040.76573,370.359155 C1034.83307,372.978771 1028.82274,374.86411 1022.73616,376.019789 C1016.7103,377.163941 1010.26517,377.74 1003.4,377.74 C994.726033,377.74 986.55715,376.416019 978.890749,373.783113 C971.224432,371.150237 964.217291,367.431648 957.867567,362.630637 C957.495824,362.349563 957.127135,362.065436 956.761498,361.778256 C953.012389,364.159977 949.047768,366.292321 944.73928,368.260857 L943.767187,368.699617 C937.45129,371.515763 930.94502,373.722711 924.248474,375.32075 C917.478452,376.936323 910.861984,377.74 904.4,377.74 C898.863049,377.74 894.067172,376.934991 889.999129,375.389134 C885.647796,373.735628 882.090745,371.199095 879.307707,367.807266 C876.621277,364.533181 874.614076,360.434544 873.353326,355.475595 C872.18242,350.870031 871.58,345.446444 871.58,339.2 L871.58,298.292496 L871.576,297.652271 C871.520829,293.350734 870.901319,289.605641 869.656107,286.43035 C868.529057,283.556372 866.711678,281.343769 864.172017,279.819972 C861.390836,278.151263 857.690927,277.42 853.14,277.42 C849.750508,277.42 846.330136,278.014535 842.87633,279.187526 C839.449528,280.351346 836.193761,282.272592 833.091618,284.91982 L832.699702,285.26088 C830.115226,287.554956 827.79271,290.509175 825.703219,294.099426 C825.678883,294.83407 825.67799,295.420217 825.679065,295.973453 L825.68,367.647443 C825.565241,371.335365 824.03944,373.691943 821.294917,375.313706 C819.22938,376.534251 816.16765,377.3 812,377.3 C807.778983,377.3 804.738056,376.505116 802.744582,375.271061 C799.983688,373.561936 798.54,371.022532 798.54,367.58 L798.54,298.291645 L798.536318,297.659306 C798.483307,293.219488 797.866212,289.398116 796.616107,286.21035 C795.500177,283.364729 793.704802,281.197098 791.18889,279.74346 C788.385033,278.123454 784.592472,277.42 779.88,277.42 C777.600041,277.42 775.258135,277.775812 772.852232,278.472257 C770.426696,279.174386 767.976671,280.369621 765.488801,282.028201 C762.94221,283.725929 760.568183,285.955424 758.348979,288.696793 C756.189372,291.364543 754.220173,294.63479 752.42,298.493915 L752.42,367.647443 C752.305241,371.335365 750.77944,373.691943 748.034917,375.313706 C745.96938,376.534251 742.90765,377.3 738.74,377.3 C734.684129,377.3 731.712452,376.514028 729.704582,375.271061 C726.943688,373.561936 725.5,371.022532 725.5,367.58 L725.5,288.828009 C725.46121,283.826329 725.126902,280.569684 723.778423,278.940271 C722.601373,277.518002 720.333375,277.205048 717.470203,277.200067 C716.217036,277.249812 715.196891,277.54779 714.198229,278.112251 C713.00968,278.78404 711.992612,280.110187 710.972973,281.894556 C709.637143,284.232257 708.434311,287.584412 707.299836,291.922111 C706.085388,296.565588 704.984528,302.603217 703.984408,310.034715 C702.334679,323.515036 700.109723,334.559576 697.33777,343.175108 C694.440615,352.179777 690.948898,359.11807 686.958979,364.046793 C682.714632,369.28981 677.744164,372.876826 672.09128,374.871961 C666.712722,376.770276 660.535329,377.74 653.730472,377.74 C646.925616,377.74 655.432728,353.301043 658.006073,353.24 C660.579418,353.178957 662.636427,352.559944 664.532854,351.309154 C667.089114,349.504186 669.045886,347.083455 670.758116,343.903601 C672.682751,340.329277 674.317331,335.924634 675.691702,330.702027 C677.117079,325.285595 678.252204,318.94178 679.107398,311.672635 C680.46188,300.535525 682.238532,291.332871 684.417609,284.044234 C686.691709,276.437763 689.431051,270.419276 692.565773,265.952297 C695.948378,261.132085 699.789449,257.759329 704.009076,255.733908 C708.204056,253.720317 712.816342,252.698152 717.853657,252.700003 L718.625045,252.705124 C722.985598,252.762417 726.839858,253.303115 730.193385,254.293929 C733.91304,255.392918 737.116383,256.972288 739.82,259 C742.580176,261.070132 744.868396,263.612723 746.679972,266.632017 C747.152241,267.419133 747.591426,268.227409 747.997326,269.056927 C749.285707,267.4105 750.635718,265.918823 752.045002,264.580002 C755.236011,261.548544 758.5507,259.081536 761.980535,257.167209 C765.483595,255.212013 769.029635,253.833987 772.613516,253.019469 C776.157299,252.214063 779.46005,251.82 782.52,251.82 C790.645839,251.82 797.886637,253.361335 804.256227,256.38689 C810.264369,259.240757 815.156415,263.554295 818.909513,269.352752 C823.46826,263.754717 828.871047,259.442616 835.108122,256.404041 C841.35776,253.359345 848.245662,251.82 855.78,251.82 C863.916546,251.82 871.126036,253.365986 877.42389,256.395333 C883.943513,259.531354 889.119494,264.425594 892.918245,271.1147 C896.575972,277.55548 898.5,286.004025 898.5,296.52 L898.5,339.191598 L898.50222,339.720045 C898.546342,344.859473 899.11059,348.632448 900.701164,350.812124 C902.103791,352.734243 904.929753,353.238907 908.568158,353.239998 L909.422126,353.234817 C916.85154,353.14322 923.992914,351.835385 930.84549,349.30725 C934.479722,347.966465 937.856199,346.467165 940.973325,344.806095 C936.666859,338.448377 933.323523,331.519633 930.946812,324.018139 C928.479143,316.229557 927.24,308.017406 927.24,299.38 C927.24,294.036246 927.873633,288.96841 929.130882,284.175149 C930.4136,279.284785 932.304845,274.879083 934.789685,270.951433 C937.301025,266.981896 940.301836,263.582816 943.784914,260.747752 C947.285946,257.898075 951.15344,255.699902 955.387228,254.15294 C959.628705,252.60317 964.195461,251.818802 969.091212,251.820001 L969.7872,251.823816 C978.737078,251.920846 985.987747,253.883664 991.604965,257.522988 C997.508669,261.347923 1001.77936,266.38646 1004.43911,272.620245 C1006.99378,278.607747 1008.28,285.033087 1008.28,291.9 C1008.28,297.310145 1007.29822,302.882202 1005.30869,308.612047 C1003.37648,314.176818 1000.7135,319.627491 997.312632,324.960664 C993.968107,330.205487 990.0927,335.261248 985.68425,340.12662 C984.055859,341.985247 982.368303,343.784709 980.621588,345.525011 C982.549346,346.722269 984.498675,347.756718 986.5149,348.661254 L987.178186,348.953122 C993.104822,351.510536 999.097327,352.8 1005.16,352.8 C1011.87328,352.8 1017.43516,352.361805 1021.84163,351.452533 C1026.10241,350.573325 1029.9938,349.260964 1033.51115,347.502291 C1034.90178,346.806975 1036.35221,346.051667 1037.86253,345.236515 C1033.8284,338.735023 1030.70042,331.628497 1028.48534,323.913911 C1026.25848,316.158277 1025.14,307.980796 1025.14,299.38 C1025.14,294.036246 1025.77363,288.96841 1027.03088,284.175149 C1028.30875,279.303283 1030.15299,274.914203 1032.54859,271.001385 C1034.9907,267.012607 1037.96492,263.596585 1041.46491,260.747752 C1044.96595,257.898075 1048.83344,255.699902 1053.06723,254.15294 C1057.30871,252.60317 1061.87546,251.818802 1066.77121,251.820001 L1067.4672,251.823816 C1076.41708,251.920846 1083.66775,253.883664 1089.28497,257.522988 C1095.18867,261.347923 1099.45936,266.38646 1102.11911,272.620245 C1104.67378,278.607747 1105.96,285.033087 1105.96,291.9 C1105.96,297.310145 1104.97822,302.882202 1102.98869,308.612047 C1101.05648,314.176818 1098.3935,319.627491 1094.99263,324.960664 C1091.64811,330.205487 1087.7727,335.261248 1083.36463,340.126187 C1081.33896,342.438286 1079.22174,344.658834 1077.01297,346.78783 C1078.05055,347.452992 1079.11052,348.070396 1080.19297,348.6399 L1080.79057,348.948294 C1085.84206,351.504557 1090.98922,352.8 1096.24,352.8 C1104.25062,352.8 1111.15599,349.91267 1116.96742,344.165816 C1123.15954,338.042496 1127.85867,329.05508 1131.22475,317.308146 C1134.32752,306.480108 1136.03711,293.546358 1136.39076,278.522175 C1134.94576,276.21291 1133.81754,273.958186 1132.82221,271.485209 L1132.55365,270.804138 C1130.74641,266.126211 1129.86,261.569497 1129.86,257.14 C1129.86,253.904959 1130.42646,251.037229 1131.50342,248.524323 C1132.69807,245.73681 1134.46013,243.566373 1136.74574,241.976379 C1140.48785,239.373176 1140.96149,239.499 1145.52,239.499 Z M1065.88,277.2 C1064.17199,277.2 1062.60694,277.560005 1060.90317,278.40077 C1059.38789,279.223211 1058.08323,280.470558 1056.94693,282.093849 C1055.64183,283.958277 1054.63778,286.235632 1053.89279,288.905196 C1053.09795,291.753358 1052.72,295.100306 1052.72,298.94 C1052.72,306.777542 1053.97802,313.999885 1056.52238,320.601479 C1057.72598,323.724343 1059.11831,326.655893 1060.81648,329.365944 C1061.9991,328.178055 1063.12599,326.981866 1064.19701,325.777559 C1067.26028,322.296659 1069.8737,318.782945 1072.03191,315.232339 C1074.11817,311.800116 1075.70237,308.234338 1076.77922,304.532682 C1077.84708,300.8619 1078.38,297.090909 1078.38,293.22 C1078.38,287.139012 1077.58685,282.693273 1075.1876,280.354001 C1072.93121,278.154023 1069.83958,277.2 1065.88,277.2 Z M967.88,277.2 C966.171994,277.2 964.606941,277.560005 962.903166,278.40077 C961.387888,279.223211 960.083232,280.470558 958.946928,282.093849 C957.641828,283.958277 956.63778,286.235632 955.892785,288.905196 C955.097949,291.753358 954.72,295.100306 954.72,298.94 C954.72,306.777542 955.978015,313.999885 958.522379,320.601479 C959.725983,323.724343 961.118311,326.655893 962.81648,329.365944 C963.999099,328.178055 965.125994,326.981866 966.197013,325.777559 C969.260276,322.296659 971.8737,318.782945 974.031912,315.232339 C976.118166,311.800116 977.702373,308.234338 978.779219,304.532682 C979.847083,300.8619 980.38,297.090909 980.38,293.22 C980.38,287.139012 979.586853,282.693273 977.187599,280.354001 C974.931212,278.154023 971.83958,277.2 967.88,277.2 Z" id="Claimeer"></path>
        </g>
    </g>
</svg>