<?xml version="1.0" encoding="UTF-8"?>
<svg width="230px" height="320px" viewBox="0 0 230 320" version="1.1" xmlns="http://www.w3.org/2000/svg" xmlns:xlink="http://www.w3.org/1999/xlink">
    <rect x="0" y="0" width="230" height="320" fill-opacity="0"></rect>
    <path d="M166.25864,148.862822 C172.044383,144.57268 176.784661,139.713611 180.517245,134.3221 C184.464075,128.621124 187.361024,122.394947 189.202962,115.641174 C190.977589,109.134208 191.865323,102.500521 191.865323,95.74 C191.865323,84.2665727 189.721728,74.2341514 185.617232,65.5976079 C181.409207,56.7432215 175.604553,49.4404703 168.243539,43.6568166 C161.123207,38.0622703 152.829601,33.8362212 143.331623,31.0377099 C134.238997,28.3586324 124.498819,27 114.105323,27 C103.682088,27 93.8320828,28.4407463 84.5503582,31.2903986 C75.3771268,34.1067416 67.096027,37.7417802 59.6940924,42.1668498 C52.1661796,46.6672325 45.8857983,51.4773895 40.8142557,56.5489322 C37.758973,59.6042148 35.9631123,63.2082054 35.3532889,67.3245134 C34.7140831,71.6391521 35.7331522,76.8796938 41.5393864,82.4177121 C46.2726621,87.1189537 50.8316951,88.4017446 54.6816289,88.2413307 C57.8101131,88.1109772 61.9139969,86.85796 67.0047296,83.1735222 C71.8340169,79.4174099 76.7954641,76.1610982 81.8932259,73.4109899 C86.8045901,70.7614381 91.9420226,68.6931812 97.3057733,67.2068407 C102.55761,65.7515124 108.15899,65.04 114.105323,65.04 C119.078135,65.04 123.957782,65.6922652 128.744149,66.9976382 C133.222298,68.2189515 137.298072,70.1295706 140.962942,72.7473347 C144.306711,75.1357413 146.944892,78.2257864 148.907249,81.9913909 C150.953949,85.9188422 151.845323,90.6724747 151.845323,96.18 C151.845323,100.881052 151.053098,105.435449 149.466449,109.842805 C147.946951,114.063635 145.635457,117.831351 142.540649,121.151236 C139.460016,124.455915 135.475329,127.000111 130.668735,128.900393 C125.583389,130.910878 119.571591,131.869613 112.668162,131.93633 L111.881985,131.94 L95.1853235,131.94 C89.9665549,131.94 86.2072331,133.839179 83.4747708,136.766817 C81.3687306,139.023289 79.2453235,143.054382 79.2453235,150.08 C79.2453235,155.174388 80.1919527,158.953938 81.5110516,161.592136 C82.8790604,164.328153 84.8913958,166.387178 87.6505145,167.79882 C89.5665466,168.779115 91.9737822,169.476685 95.0676853,169.54 L111.025323,169.54 C121.639437,169.54 130.866508,171.330329 138.651087,175.127684 C145.934032,178.680341 151.660187,183.58544 155.751203,189.92948 C159.810014,196.223578 161.745323,203.566656 161.745323,211.9 C161.745323,219.138465 160.712029,225.537412 158.500557,231.066093 C156.470606,236.14097 153.567797,240.394543 149.729107,243.781621 C145.723327,247.316133 140.903774,249.959035 135.313151,251.783343 C129.260303,253.758483 122.405686,254.7 114.765323,254.7 C108.385755,254.7 102.162816,253.666802 96.0961005,251.602868 C89.86984,249.484655 83.8761861,246.357558 78.1005614,242.250447 C72.1772869,238.038341 66.5928909,232.833341 61.3245733,226.660671 C56.7567822,221.068048 51.8730568,219.451376 47.4052069,219.616852 C43.548805,219.759681 39.2314536,221.296818 34.8240988,225.3578 C28.1827082,231.280458 27.4458323,236.755455 28.275259,241.068474 C28.9457407,244.554979 30.4444198,247.796797 32.8555563,250.755401 C40.3780147,260.038327 48.5152148,267.70246 57.2358621,273.782912 C66.0849332,279.952906 75.3854919,284.568799 85.1264064,287.653422 C94.9081681,290.75098 104.934449,292.3 115.205323,292.3 C128.736849,292.3 140.725569,290.474402 151.191285,286.93216 C162.176871,283.213961 171.352157,277.839883 178.782579,270.91608 C186.316501,263.895835 192.0724,255.388945 196.011871,245.368985 C199.805463,235.720068 201.765323,224.719104 201.765323,212.34 C201.765323,201.078721 199.636461,190.623743 195.436024,180.962739 C191.14309,171.088991 184.679134,162.572861 176.004349,155.444078 C173.059818,153.024315 169.81305,150.827117 166.25864,148.862822 L166.25864,148.862822 Z" fill="#22262A" fill-rule="nonzero"></path>
</svg>