<?xml version="1.0" encoding="UTF-8"?>
<svg width="230px" height="320px" viewBox="0 0 230 320" version="1.1" xmlns="http://www.w3.org/2000/svg" xmlns:xlink="http://www.w3.org/1999/xlink">
    <rect x="0" y="0" width="230" height="320" fill-opacity="0"></rect>
    <path d="M116.277629,29 C105.530998,29 95.4807735,30.4863971 86.1201538,33.416678 C76.749217,36.3501886 68.4072929,40.240214 61.0751242,45.0468579 C53.6829906,49.8928121 47.6297549,54.9701896 42.6437657,60.4805776 C39.6462704,64.023072 38.0738241,67.6299966 37.5339115,71.1394282 C36.8838747,75.3646673 37.8310786,80.6439736 43.894446,86.3505527 C48.6796566,90.8167492 53.2823867,92.1556722 57.2619597,92.0026117 C60.9064719,91.8624382 65.2240783,90.3870387 69.8925002,86.3018766 C76.9047931,80.0834282 84.0001593,75.2267168 91.2133916,71.7855418 C97.9296414,68.5814593 105.487433,67.04 113.857629,67.04 C122.859869,67.04 130.648812,68.2224347 137.187534,70.7617441 C142.62184,72.8721545 146.85181,76.1355012 149.763136,80.6877569 C152.937551,85.6513885 154.237629,92.3552817 154.237629,100.6 C154.237629,105.309183 153.690525,110.081103 152.608789,114.917102 C151.494419,119.89899 149.780056,125.008381 147.486055,130.251812 C145.082843,135.744868 142.090648,141.441015 138.520309,147.345807 C134.887237,153.354348 130.621961,159.535148 125.731389,165.892892 C120.741682,172.379512 115.144711,179.07881 108.94325,185.993083 C102.987746,192.633127 96.4156818,199.629403 89.2280122,206.982804 L88.0136332,208.22262 L38.7629475,258.572648 C34.2918495,263.064797 32.7260855,267.89333 33.0383754,272.733823 C33.3510053,277.579586 35.2050447,281.609552 38.4765607,284.881068 C41.8711612,288.275668 45.6736014,289.975964 50.548125,290.12 L181.177629,290.12 C184.215161,290.12 186.686185,289.472243 188.67723,288.498844 C191.548801,287.094965 193.670087,284.975763 195.0719,282.172136 C196.390999,279.533938 197.337629,275.754388 197.337629,270.66 C197.337629,264.092456 195.409725,260.07933 193.323395,257.694954 C190.800298,254.811414 187.334741,252.655511 181.303435,252.52 L98.0721345,252.52 L115.057011,235.202087 C123.549197,226.560922 131.302163,218.247329 138.310332,210.269945 C145.365245,202.239354 151.781132,194.433058 157.560138,186.852804 C163.429451,179.154095 168.571685,171.68213 172.992667,164.440866 C177.515974,157.032 181.293108,149.737579 184.334536,142.562928 C187.437915,135.242137 189.777581,128.078264 191.368957,121.076211 C193.005448,113.875649 193.817629,106.75647 193.817629,99.72 C193.817629,87.8630971 191.735782,77.558655 187.760274,68.7617852 C183.637422,59.6388781 177.827466,52.1136216 170.374579,46.1513119 C163.179916,40.3955815 154.894713,36.0572618 145.496379,33.1784926 C136.449569,30.4073978 126.712275,29 116.277629,29 L116.277629,29 Z" fill="#22262A" fill-rule="nonzero"></path>
</svg>