<?xml version="1.0" encoding="UTF-8"?>
<svg width="230px" height="320px" viewBox="0 0 230 320" version="1.1" xmlns="http://www.w3.org/2000/svg" xmlns:xlink="http://www.w3.org/1999/xlink">
    <rect x="0" y="0" width="230" height="320" fill-opacity="0"></rect>
    <path d="M120.872404,86.9799743 L120.872404,276.04 C120.872404,281.362102 123.004112,285.49878 127.072404,288.55 C129.715541,290.532353 134.004013,292.2 140.552404,292.2 C146.903084,292.2 151.133616,290.559091 153.812404,288.55 C157.613536,285.699151 159.854324,281.950004 160.012404,276.196725 L160.012404,43.94 C160.012404,40.0627872 158.683564,36.362335 155.534404,33.016353 C153.147404,30.4801655 148.875588,28 141.212404,28 C138.103313,28 135.625426,28.2642791 133.7631,28.6781294 C131.222146,29.2427858 128.978044,30.1897194 127.004828,31.4582152 C125.50292,32.423728 123.755322,33.8349466 121.730108,35.8613527 C116.356242,41.3766367 111.338092,46.1871936 106.671258,50.288351 C102.02346,54.3727793 97.5174946,58.0711366 93.1513529,61.3809537 C88.7792433,64.6952949 84.1970504,67.9743449 79.4052186,71.2187231 C73.0234372,75.3793808 70.7872548,79.8432713 70.188465,83.4360101 C69.6137906,86.8840561 70.1968575,91.5388886 74.1456119,97.7549055 C78.8075282,104.209867 83.7407413,105.86 87.8624042,105.86 C91.0948281,105.86 94.7070566,105.009519 99.2405369,102.562328 C103.396115,99.945853 107.667922,97.0226962 112.054395,93.7905584 C114.993645,91.6247946 117.933051,89.354687 120.872404,86.9799743 L120.872404,86.9799743 Z" fill="#22262A" fill-rule="nonzero"></path>
</svg>